<?xml version="1.0" encoding="utf-8"?>
<!-- Generator: Adobe Illustrator 20.0.0, SVG Export Plug-In . SVG Version: 6.00 Build 0)  -->
<svg version="1.1" id="Layer_1" xmlns="http://www.w3.org/2000/svg" xmlns:xlink="http://www.w3.org/1999/xlink" x="0px" y="0px"
	 viewBox="0 0 392 342" style="enable-background:new 0 0 392 342;" xml:space="preserve">
<style type="text/css">
	.st0{fill:#FF00FF;}
	.st1{fill:#F800FF;}
	.st2{fill:#FFFFFF;}
</style>
<g>
	<path class="st0" d="M168,229.3l14.6-8.2c10.5-5.9,17.7-3.8,22.1,4.1l0.1,0.2c4.3,7.6,1.6,14.8-7.8,20.1l-3.5,2l6.7,11.9l-11.6,6.5
		L168,229.3z M191.4,238.3c3.1-1.7,3.9-4,2.4-6.7l-0.1-0.2c-1.6-2.8-3.8-3-6.8-1.3l-2.5,1.4l4.6,8.2L191.4,238.3z"/>
</g>
<g>
	<path class="st0" d="M189.2,205.5l-0.1-0.4c-3.7-12.1,3.1-22.7,14.8-26.3c12-3.6,23.2,0.9,26.9,13.3l0.1,0.4
		c3.7,12.2-2.2,22.9-15.1,26.8C203.1,223.1,192.8,217.4,189.2,205.5z M218.2,196.7l-0.1-0.4c-2-6.6-6.3-9.3-11.2-7.8
		c-4.8,1.5-6.9,6-4.8,12.6l0.1,0.4c2,6.7,6.2,9.4,11.2,7.9C218.2,207.9,220.1,203.2,218.2,196.7z"/>
</g>
<g>
	<path class="st0" d="M230.9,210.4l0.1-0.3c1.4-7,7.7-10.6,14.5-9.2c7,1.4,11.4,6.7,10,13.9l-0.1,0.3c-1.4,7.1-7.2,10.9-14.7,9.4
		C233.1,222.9,229.5,217.3,230.9,210.4z M247.8,213.7l0.1-0.3c0.8-3.9-0.7-6.3-3.5-6.9c-2.8-0.6-5,1.2-5.8,5l-0.1,0.3
		c-0.8,3.9,0.6,6.4,3.5,7C244.8,219.4,247,217.5,247.8,213.7z"/>
</g>
<g>
	<path class="st0" d="M258.8,204.7L283,202l1,8.6l-13.1,1.5l0.7,6.5l10.6-1.2l0.9,8.2l-10.6,1.2l1.3,11.7l-11.1,1.2L258.8,204.7z"/>
</g>
<g>
	<path class="st1" d="M173.8,253.1c0,0-1.9,0.2-5.2,0.5c-3.3,0.3-8.1,0.7-13.8,1.1c-2.9,0.2-6,0.4-9.2,0.6
		c-3.3,0.2-6.7,0.4-10.3,0.5c-3.6,0.1-7.3,0.3-11,0.5c-3.8,0.1-7.6,0.2-11.4,0.3c-3.8,0.1-7.6,0.1-11.4,0.2c-3.8,0.1-7.5,0-11,0.1
		c-3.6,0-7,0-10.3,0c-3.3,0-6.4-0.1-9.3-0.1c-5.7-0.1-10.5-0.3-13.9-0.5c-3.3-0.2-5.3-0.3-5.3-0.3s1.9-0.2,5.2-0.5
		c3.3-0.3,8.1-0.7,13.8-1.1c2.9-0.2,6-0.4,9.2-0.6c3.3-0.2,6.7-0.4,10.3-0.5c3.6-0.1,7.3-0.3,11-0.5c3.8-0.1,7.6-0.2,11.4-0.3
		c3.8-0.1,7.6-0.1,11.4-0.2c3.8-0.1,7.5,0,11-0.1c3.6,0,7,0,10.3,0c3.3,0,6.4,0.1,9.3,0.1c5.7,0.1,10.5,0.3,13.9,0.5
		C171.9,253,173.8,253.1,173.8,253.1z"/>
	<path class="st1" d="M175.7,247.4c0,0-0.7,0-1.9,0.1c-1.2,0-3.1,0.1-5.4,0.1c-4.7,0.1-11.3,0.2-19.3,0.1c-4,0-8.3,0-12.9-0.1
		c-4.6,0-9.4-0.1-14.4-0.2c-5-0.1-10.1-0.2-15.4-0.3c-5.2-0.2-10.5-0.3-15.8-0.5c-5.3-0.2-10.6-0.4-15.8-0.6
		c-5.2-0.2-10.4-0.5-15.3-0.7c-5-0.2-9.8-0.5-14.3-0.8c-4.6-0.2-8.9-0.5-12.8-0.8c-8-0.5-14.6-1-19.2-1.4c-2.3-0.2-4.1-0.4-5.4-0.5
		c-1.2-0.1-1.9-0.2-1.9-0.2s0.7,0,1.9-0.1c1.2,0,3.1-0.1,5.4-0.1c4.7-0.1,11.3-0.2,19.3-0.2c4,0,8.3,0,12.9,0.1
		c4.6,0,9.4,0.1,14.4,0.2c5,0.1,10.1,0.2,15.4,0.3c5.2,0.2,10.5,0.3,15.8,0.5c5.3,0.2,10.6,0.4,15.8,0.6c5.2,0.2,10.4,0.5,15.3,0.7
		c5,0.2,9.8,0.5,14.3,0.8c4.6,0.2,8.9,0.5,12.8,0.8c8,0.5,14.6,1,19.2,1.4c2.3,0.2,4.1,0.4,5.4,0.5
		C175,247.3,175.7,247.4,175.7,247.4z"/>
	<g>
		<path class="st2" d="M122.2,190.2c-30.5-27.2-51.8,27.2-14.9,48.2c-19.5,9.5-15.3,59.6,12.2,37c-4.1,21.1,17.3,78.7,45.2,41.9"/>
		<path class="st1" d="M122.2,190.2c-3-2.4-6.2-4.4-9.7-5.7c-1.7-0.6-3.6-1-5.4-1.1c-1.8-0.1-3.6,0.1-5.3,0.7
			c-1.7,0.6-3.3,1.4-4.6,2.6c-1.4,1.1-2.6,2.4-3.6,3.9c-2,3-3.3,6.4-3.9,10c-0.6,3.6-0.6,7.2,0,10.8c0.6,3.6,1.8,7,3.5,10.2
			c1.7,3.2,3.9,6.1,6.4,8.6c1.3,1.3,2.7,2.4,4.1,3.5c1.5,1.1,3,2,4.5,2.9l3.3,1.9l-3.4,1.7c-2.2,1.1-4,2.8-5.5,4.8
			c-1.5,2-2.7,4.4-3.5,6.8c-0.8,2.5-1.4,5.1-1.6,7.7c-0.3,2.6-0.3,5.3,0.1,7.8c0.4,2.6,1,5.1,2.2,7.2c1.2,2.1,2.9,3.8,5,4.4
			c1,0.3,2.2,0.4,3.3,0.2c1.2-0.2,2.4-0.5,3.5-1c1.2-0.5,2.3-1.1,3.4-1.8c1.1-0.7,2.2-1.5,3.2-2.3l3.8-2.8l-0.9,4.5
			c-0.7,3.3-0.7,6.9-0.4,10.5c0.3,3.6,0.9,7.1,1.8,10.6c0.9,3.5,1.9,7,3.2,10.3c1.3,3.4,2.9,6.6,4.8,9.7c1.9,3,4.1,5.9,6.8,8.2
			c1.4,1.1,2.9,2.1,4.5,2.7c1.6,0.7,3.3,1,5.1,1c1.7,0,3.5-0.4,5.2-1.1c1.7-0.7,3.2-1.6,4.7-2.6c1.5-1.1,2.8-2.3,4.1-3.6
			c1.3-1.3,2.5-2.7,3.7-4.1c-1.1,1.5-2.2,3-3.4,4.3c-1.2,1.4-2.5,2.7-4,3.9c-1.4,1.2-3,2.2-4.7,3c-1.7,0.8-3.6,1.3-5.5,1.4
			c-1.9,0.1-3.9-0.2-5.7-0.8c-1.8-0.7-3.5-1.6-5-2.8c-3-2.3-5.5-5.2-7.6-8.3c-2.1-3.1-3.8-6.5-5.3-9.9c-1.5-3.4-2.7-7-3.7-10.6
			c-1-3.6-1.7-7.3-2.1-11c-0.4-3.7-0.5-7.6,0.1-11.5l2.8,1.7c-1.1,0.9-2.2,1.8-3.5,2.6c-1.2,0.8-2.5,1.6-3.9,2.2
			c-1.4,0.6-2.9,1.1-4.5,1.4c-1.6,0.3-3.3,0.2-4.9-0.2c-1.7-0.4-3.2-1.3-4.4-2.4c-1.3-1.1-2.2-2.4-3-3.8c-1.6-2.7-2.4-5.7-2.8-8.6
			c-0.4-2.9-0.5-5.9-0.2-8.8c0.3-2.9,0.9-5.8,1.9-8.6c1-2.8,2.3-5.5,4.1-8c1.8-2.4,4.2-4.6,7.1-6l-0.1,3.6c-3.4-2-6.6-4.4-9.4-7.2
			c-2.8-2.8-5.1-6.1-6.9-9.7c-1.8-3.6-2.9-7.4-3.5-11.3c-0.5-3.9-0.4-7.9,0.4-11.8c0.8-3.9,2.4-7.6,4.8-10.8c1.2-1.6,2.6-3,4.2-4.2
			c1.6-1.2,3.5-2.1,5.4-2.6c1.9-0.5,4-0.6,5.9-0.4c2,0.2,3.9,0.8,5.6,1.5C116.4,185.2,119.4,187.6,122.2,190.2z"/>
	</g>
</g>
<g>
	<path class="st1" d="M284.8,238.5c0,0,1.3-0.1,3.6-0.3c2.3-0.2,5.6-0.3,9.5-0.5c2-0.1,4.1-0.1,6.3-0.1c2.2,0,4.6-0.1,7,0
		c4.9,0,10.1,0.1,15.3,0.3c2.6,0.1,5.2,0.2,7.8,0.3c2.6,0.1,5.1,0.3,7.5,0.4c2.4,0.2,4.8,0.4,7,0.6c2.2,0.2,4.3,0.4,6.3,0.6
		c3.9,0.4,7.1,0.8,9.4,1.1c2.3,0.3,3.6,0.6,3.6,0.6s-1.3,0.1-3.6,0.3c-2.3,0.2-5.6,0.3-9.5,0.5c-2,0.1-4.1,0.1-6.3,0.1
		c-2.2,0-4.6,0.1-7,0c-2.4,0-5,0-7.5-0.1c-2.6,0-5.2-0.1-7.8-0.2c-5.2-0.2-10.4-0.5-15.3-0.8c-2.4-0.2-4.8-0.4-7-0.6
		c-2.2-0.2-4.3-0.4-6.3-0.6c-3.9-0.4-7.1-0.8-9.4-1.1C286.1,238.8,284.8,238.5,284.8,238.5z"/>
	<path class="st1" d="M252.1,241.4c0,0,1.7,1.2,4.7,3.2c3,2.1,7.2,5.1,12.1,8.8c2.5,1.8,5.2,3.8,8,6c2.8,2.2,5.8,4.4,8.9,6.8
		c3,2.4,6.2,4.8,9.4,7.4c3.2,2.5,6.4,5.1,9.6,7.7c3.2,2.6,6.4,5.2,9.5,7.8c3.1,2.6,6.2,5.2,9.2,7.7c3,2.5,5.8,4.9,8.5,7.2
		c2.7,2.3,5.2,4.5,7.5,6.6c4.7,4.1,8.5,7.6,11.1,10c2.7,2.5,4.2,3.9,4.2,3.9s-1.7-1.2-4.7-3.2c-3-2.1-7.2-5.1-12.1-8.8
		c-2.5-1.8-5.2-3.8-8-6c-2.8-2.1-5.8-4.4-8.9-6.8c-3-2.4-6.2-4.8-9.4-7.4c-3.2-2.5-6.4-5.1-9.6-7.7c-3.2-2.6-6.4-5.2-9.5-7.8
		c-3.1-2.6-6.2-5.2-9.2-7.7c-3-2.5-5.8-4.9-8.5-7.2c-2.7-2.3-5.2-4.5-7.5-6.6c-4.7-4.1-8.5-7.6-11.1-10
		C253.6,242.8,252.1,241.4,252.1,241.4z"/>
</g>
<g>
	<g>
		<path class="st1" d="M252.9,200c0,0,0.1-0.7,0.2-1.9c0.1-1.2,0.3-3,0.6-5.3c0.6-4.6,1.4-11.1,2.5-18.9c0.6-3.9,1.2-8.2,1.9-12.6
			c0.7-4.5,1.4-9.2,2.2-14.1c0.8-4.9,1.6-9.9,2.5-15c0.9-5.1,1.8-10.3,2.7-15.5c0.9-5.2,1.9-10.4,2.8-15.5c0.9-5.1,1.9-10.1,2.8-15
			c0.9-4.9,1.9-9.5,2.8-14c0.9-4.4,1.8-8.6,2.6-12.5c1.6-7.7,3.1-14.2,4.1-18.7c0.5-2.3,1-4,1.2-5.2c0.3-1.2,0.4-1.8,0.4-1.8
			s-0.1,0.7-0.2,1.9c-0.1,1.2-0.3,3-0.6,5.3c-0.6,4.6-1.4,11.1-2.5,18.9c-0.6,3.9-1.2,8.2-1.9,12.6c-0.7,4.5-1.4,9.2-2.2,14.1
			c-0.8,4.9-1.6,9.9-2.5,15c-0.9,5.1-1.8,10.3-2.7,15.5c-0.9,5.2-1.9,10.4-2.8,15.5c-0.9,5.1-1.9,10.1-2.8,15
			c-0.9,4.9-1.9,9.5-2.8,14c-0.9,4.4-1.8,8.6-2.6,12.5c-1.6,7.7-3.1,14.2-4.1,18.7c-0.5,2.3-0.9,4-1.2,5.2
			C253.1,199.4,252.9,200,252.9,200z"/>
		<path class="st1" d="M259.5,204.8c0,0,0.3-0.8,0.9-2.3c0.6-1.5,1.5-3.6,2.7-6.4c2.3-5.5,5.7-13.3,9.8-22.6c2.1-4.7,4.3-9.7,6.7-15
			c2.4-5.3,4.9-10.9,7.6-16.7c2.7-5.8,5.4-11.8,8.2-17.8c2.8-6,5.7-12.2,8.6-18.3c2.9-6.1,5.8-12.3,8.7-18.3
			c2.9-6,5.8-11.9,8.5-17.7c2.8-5.7,5.5-11.2,8.1-16.5c2.6-5.2,5.1-10.2,7.4-14.7c4.6-9.1,8.5-16.6,11.2-21.9
			c1.4-2.6,2.5-4.7,3.2-6.1c0.7-1.4,1.1-2.2,1.1-2.2s-0.3,0.8-0.9,2.3c-0.6,1.5-1.5,3.6-2.7,6.4c-2.3,5.5-5.7,13.3-9.8,22.6
			c-2.1,4.7-4.3,9.7-6.7,15c-2.4,5.3-4.9,10.9-7.6,16.7c-2.7,5.8-5.4,11.8-8.2,17.8c-2.8,6-5.7,12.2-8.6,18.3
			c-2.9,6.1-5.8,12.2-8.7,18.3c-2.9,6-5.8,11.9-8.5,17.7c-2.8,5.7-5.5,11.2-8.1,16.5c-2.6,5.2-5.1,10.2-7.4,14.7
			c-4.6,9.1-8.5,16.6-11.2,21.9c-1.4,2.6-2.5,4.7-3.2,6.1C259.9,204.1,259.5,204.8,259.5,204.8z"/>
		<g>
			<path class="st2" d="M331.5,174c36-19.4-7.9-58-40.2-30.5c-2.3-21.5-50.8-34.7-38.9-1.2c-18.4-11.1-79.9-10.6-54.8,28.2"/>
			<path class="st1" d="M331.5,174c3.2-2,6.3-4.3,8.6-7.2c1.2-1.4,2.2-3,2.8-4.7c0.7-1.7,1.1-3.5,1.1-5.2c0-1.8-0.2-3.6-0.8-5.2
				c-0.6-1.7-1.4-3.3-2.5-4.7c-2.1-2.9-4.9-5.3-8.1-7c-3.1-1.8-6.6-3-10.1-3.7c-3.5-0.7-7.2-0.7-10.7-0.2c-3.6,0.5-7,1.6-10.3,3.1
				c-1.6,0.8-3.2,1.7-4.7,2.7c-1.5,1-2.9,2.1-4.3,3.3l-2.9,2.5l-0.4-3.8c-0.3-2.4-1.2-4.7-2.6-6.8c-1.4-2.1-3.2-4-5.2-5.6
				c-2-1.6-4.3-3-6.6-4.2c-2.4-1.1-4.9-2-7.4-2.6c-2.5-0.5-5.1-0.7-7.5-0.3c-2.4,0.4-4.5,1.4-5.8,3.2c-0.6,0.9-1.1,1.9-1.3,3.1
				c-0.3,1.1-0.3,2.4-0.3,3.6c0.1,1.3,0.3,2.5,0.5,3.8c0.3,1.3,0.7,2.6,1.1,3.8l1.4,4.5l-4-2.4c-2.9-1.8-6.3-3-9.7-3.9
				c-3.5-0.9-7-1.6-10.6-2c-3.6-0.4-7.2-0.6-10.8-0.5c-3.6,0.1-7.2,0.4-10.7,1.2c-3.5,0.7-6.9,1.8-10,3.6c-1.5,0.9-2.9,2-4.1,3.3
				c-1.2,1.3-2.1,2.8-2.7,4.5c-0.6,1.6-0.8,3.4-0.8,5.2c0.1,1.8,0.4,3.6,0.9,5.3c0.5,1.7,1.2,3.4,1.9,5.1c0.8,1.7,1.7,3.3,2.6,4.8
				c-1-1.5-2-3.1-2.9-4.7c-0.9-1.6-1.7-3.3-2.3-5.1c-0.6-1.8-1-3.6-1.2-5.5c-0.2-1.9,0-3.8,0.5-5.7c0.5-1.8,1.5-3.6,2.7-5.1
				c1.2-1.5,2.7-2.8,4.3-3.8c3.2-2.1,6.8-3.4,10.4-4.3c3.6-0.9,7.4-1.4,11.1-1.6c3.7-0.2,7.5-0.2,11.2,0.2c3.7,0.3,7.4,0.9,11.1,1.8
				c3.7,0.9,7.3,2.1,10.7,4l-2.6,2.1c-0.5-1.4-1-2.7-1.3-4.2c-0.3-1.4-0.6-2.9-0.7-4.4c-0.1-1.5-0.1-3.1,0.2-4.7
				c0.3-1.6,0.9-3.2,1.9-4.6c1-1.4,2.3-2.5,3.8-3.4c1.5-0.8,3-1.3,4.6-1.6c3.1-0.5,6.2-0.3,9.1,0.3c2.9,0.6,5.7,1.6,8.4,2.8
				c2.7,1.3,5.2,2.8,7.5,4.7c2.3,1.9,4.4,4.1,6.1,6.6c1.7,2.5,2.9,5.5,3.2,8.7l-3.4-1.3c3-2.5,6.4-4.7,10-6.3
				c3.6-1.6,7.5-2.7,11.4-3.2c4-0.5,8-0.2,11.8,0.6c3.9,0.8,7.6,2.3,11,4.4c3.3,2.1,6.3,4.8,8.5,8.2c1.1,1.7,2,3.5,2.5,5.4
				c0.6,1.9,0.7,4,0.6,6c-0.2,2-0.8,3.9-1.6,5.7c-0.9,1.8-2,3.4-3.4,4.8C338.2,170.3,334.9,172.3,331.5,174z"/>
		</g>
	</g>
	<path class="st1" d="M245.9,161c-0.9,0.9-1.7,1.8-2.5,2.8c-0.7,1-1.3,2.1-1.6,3.2c-0.2,1.1,0,2.1,0.7,2.8c0.7,0.7,1.8,1.2,2.9,1.5
		c2.3,0.7,4.7,0.9,7.2,0.9c1.2,0,2.5,0,3.7,0c1.2,0,2.5-0.1,3.7-0.2l1.8-0.1l1.8-0.2c1.2-0.1,2.4-0.3,3.6-0.5
		c1.2-0.2,2.4-0.5,3.5-0.8c1.1-0.3,2.3-0.7,3.3-1.2c2.1-0.9,4.1-2.1,5.5-3.7c0.7-0.8,1.3-1.6,1.8-2.6c0.2-0.5,0.4-0.9,0.5-1.4
		c0.1-0.2,0.1-0.5,0.2-0.7c0-0.1,0-0.2,0-0.3c0-0.1,0-0.3,0-0.2l4.2,0c0,1,0.1,2.2,0.2,3.3c0.1,1.1,0.3,2.3,0.6,3.4
		c0.5,2.2,1.3,4.3,2.4,6.2c0.6,0.9,1.2,1.8,1.9,2.6c0.7,0.8,1.5,1.5,2.4,2c0.9,0.5,1.9,1,2.9,1.4c1,0.4,2.1,0.5,3.2,0.7
		c0.6,0,1.1,0.1,1.7,0.1c0.6,0,1.1,0,1.7,0c1.2-0.1,2.4-0.2,3.5-0.3c1.2-0.2,2.3-0.4,3.5-0.6c1.1-0.3,2.3-0.6,3.4-1
		c2.2-0.8,4.3-2,6-3.5c0.9-0.8,1.6-1.7,2.3-2.7c0.6-1,1.2-2.1,1.4-3.3c0,1.2-0.4,2.4-0.9,3.6c-0.5,1.1-1.2,2.2-2,3.2
		c-1.6,1.9-3.8,3.4-6,4.5c-1.1,0.6-2.3,1-3.5,1.4c-1.2,0.4-2.4,0.7-3.6,1c-1.2,0.3-2.5,0.5-3.7,0.7c-0.7,0.1-1.3,0.1-1.9,0.2
		c-0.6,0-1.3,0-2,0c-1.3-0.1-2.6-0.2-3.9-0.6c-1.3-0.3-2.6-0.9-3.8-1.5c-1.2-0.7-2.3-1.5-3.3-2.5c-1-1-1.8-2-2.5-3.2
		c-0.7-1.1-1.3-2.3-1.8-3.5c-0.5-1.2-0.9-2.5-1.3-3.7c-0.3-1.3-0.6-2.5-0.8-3.8c-0.2-1.3-0.3-2.5-0.3-3.9l4.2,0c0,0.4,0,0.5,0,0.7
		c0,0.2,0,0.4-0.1,0.6c-0.1,0.4-0.1,0.8-0.2,1.1c-0.2,0.7-0.5,1.5-0.8,2.1c-0.6,1.4-1.5,2.6-2.5,3.6c-2,2.1-4.5,3.6-7,4.6
		c-1.3,0.5-2.6,0.9-3.9,1.2c-1.3,0.3-2.6,0.6-3.9,0.7c-1.3,0.2-2.6,0.3-3.9,0.4c-1.3,0.1-2.6,0.1-3.9,0.1c-1.3,0-2.5-0.1-3.8-0.1
		c-1.3-0.1-2.6-0.2-3.9-0.3c-2.6-0.3-5.2-0.7-7.7-1.7c-1.2-0.5-2.5-1.2-3.5-2.4c-0.5-0.6-0.8-1.3-0.9-2.1c-0.1-0.8,0-1.5,0.3-2.2
		c0.5-1.3,1.3-2.4,2.2-3.3C243.8,162.6,244.8,161.7,245.9,161z"/>
</g>
<path class="st1" d="M149,294c-0.1-1.7-0.1-3.3-0.1-4.9l-0.1-4.9c-0.1-1.6-0.1-3.3-0.2-4.9c-0.1-1.6-0.2-3.2-0.4-4.9l-0.2-2.4
	l-0.3-2.4c-0.2-1.6-0.4-3.2-0.7-4.8c-0.3-1.6-0.5-3.2-0.9-4.7l-0.5-2.4l-0.6-2.3c-0.4-1.5-0.8-3.1-1.3-4.6c-0.5-1.5-1-3-1.5-4.5
	c-0.6-1.5-1.1-3-1.8-4.4c-0.6-1.5-1.3-2.9-2-4.3l-1.1-2.1c-0.4-0.7-0.8-1.4-1.2-2.1c-0.8-1.4-1.7-2.7-2.6-4
	c-0.9-1.3-1.9-2.6-2.9-3.8c-0.5-0.6-1-1.2-1.6-1.8l-0.8-0.9l-0.9-0.9l-3.7-3.8l4.9,1.9c0.3,0.1,0.6,0.2,0.9,0.3l0.9,0.3
	c0.6,0.2,1.2,0.3,1.9,0.4c1.2,0.2,2.5,0.3,3.7,0.2c0.3,0,0.6-0.1,0.9-0.2c0.3-0.1,0.6-0.2,0.9-0.3c0.3-0.1,0.5-0.3,0.8-0.5
	c0.2-0.2,0.5-0.4,0.7-0.6c0.2-0.2,0.4-0.5,0.5-0.8c0.1-0.3,0.3-0.6,0.4-0.9c0.2-0.6,0.3-1.3,0.3-2c0,0.3,0.1,0.7,0.1,1
	c0,0.3,0,0.7,0,1c0,0.3-0.1,0.7-0.2,1c-0.1,0.3-0.2,0.7-0.4,1c-0.2,0.3-0.4,0.6-0.7,0.9c-0.3,0.3-0.5,0.5-0.9,0.7
	c-0.3,0.2-0.6,0.4-1,0.5c-0.3,0.1-0.7,0.3-1,0.4c-1.4,0.4-2.8,0.4-4.2,0.3c-0.7,0-1.4-0.1-2.1-0.2c-0.3-0.1-0.7-0.1-1-0.2
	c-0.3-0.1-0.7-0.1-1-0.2l1.2-1.9l0.9,0.7l1,0.8c0.6,0.5,1.3,1.1,1.9,1.7c1.2,1.2,2.3,2.4,3.4,3.7c1.1,1.3,2.1,2.6,3.1,4
	c0.5,0.7,0.9,1.4,1.4,2.1l1.3,2.2c0.4,0.7,0.8,1.5,1.2,2.2c0.4,0.8,0.8,1.5,1.1,2.3l1,2.3l0.9,2.4c0.6,1.6,1.1,3.2,1.6,4.8
	c0.3,0.8,0.5,1.6,0.7,2.4c0.2,0.8,0.4,1.6,0.6,2.4l0.5,2.5l0.4,2.5c0.3,1.7,0.5,3.3,0.7,5c0.1,1.7,0.3,3.3,0.4,5l0.1,2.5l0,2.5
	c0,1.7-0.1,3.3-0.2,5c-0.1,1.7-0.3,3.3-0.4,5c-0.2,1.6-0.4,3.3-0.7,4.9C149.7,290.8,149.3,292.4,149,294z"/>
</svg>
