<?xml version="1.0" encoding="utf-8"?>
<!-- Generator: Adobe Illustrator 20.0.0, SVG Export Plug-In . SVG Version: 6.00 Build 0)  -->
<svg version="1.1" id="Layer_1" xmlns="http://www.w3.org/2000/svg" xmlns:xlink="http://www.w3.org/1999/xlink" x="0px" y="0px"
	 viewBox="0 0 171.1 112.5" style="enable-background:new 0 0 171.1 112.5;" xml:space="preserve">
<style type="text/css">
	.st0{fill:#F800FF;}
</style>
<g>
	<g>
		<path class="st0" d="M34.9,6l13.7,3.6c10,2.6,13.5,9.2,13.4,17.7l0,0.2c-0.1,8.2-4.3,12.2-13.1,9.8l-2.5-0.7l-0.1,11.9l-11.8-3.1
			L34.9,6z M47.7,27.3c2.1,0.6,3.2-0.3,3.2-2.6l0-0.2c0-2.3-1-3.5-3.1-4.1L46.6,20l-0.1,7L47.7,27.3z"/>
	</g>
	<g>
		<path class="st0" d="M59,48.7l0-0.4c0.1-12.5,7.9-18.1,17.5-15.6c9.8,2.6,17.4,11.5,17.3,24.4l0,0.4c-0.1,12.7-7.2,18.8-17.9,16
			C65.2,70.7,58.9,61,59,48.7z M81.5,54.6l0-0.4c0.1-6.1-2.1-9.2-5.1-10c-3-0.8-5,1.3-5.1,7.4l0,0.4c-0.1,6,1.7,9.3,5,10.2
			C79.4,62.9,81.5,60.3,81.5,54.6z"/>
	</g>
	<g>
		<path class="st0" d="M97.1,55.2l13.7,3.6c10,2.6,13.5,9.2,13.4,17.7l0,0.2c-0.1,8.2-4.3,12.2-13.1,9.8l-2.5-0.7l-0.1,11.9
			l-11.8-3.1L97.1,55.2z M109.8,76.4c2.1,0.6,3.2-0.3,3.2-2.6l0-0.2c0-2.3-1-3.5-3.1-4.1l-1.2-0.3l-0.1,7L109.8,76.4z"/>
	</g>
</g>
</svg>
