<?xml version="1.0" encoding="utf-8"?>
<!-- Generator: Adobe Illustrator 20.0.0, SVG Export Plug-In . SVG Version: 6.00 Build 0)  -->
<svg version="1.1" id="Layer_1" xmlns="http://www.w3.org/2000/svg" xmlns:xlink="http://www.w3.org/1999/xlink" x="0px" y="0px"
	 viewBox="0 0 140 176" style="enable-background:new 0 0 140 176;" xml:space="preserve">
<style type="text/css">
	.st0{fill:#F800FF;}
</style>
<g>
	<g>
		<path class="st0" d="M23.8,134.8l8.2-4.6c0.4,2.4,1.2,4,3,3c1.4-0.8,1.7-2.2,1.5-3.7c-0.2-1.8-1-2.2-3-1.7
			c-7.1,2.3-10-0.6-11.3-11.4c-1.2-9.9,1.6-19.1,7.8-22.6c6.1-3.4,10-0.1,11.8,11.4l-8,4.5c-0.3-2.2-1.1-3.3-2.2-2.7
			c-1,0.6-1.5,1.8-1.3,3.3c0.2,1.7,0.9,2.3,3,1.6c5.9-2,10-1,11.3,10.8c1.1,9.7-1.3,19.9-8,23.7C29.8,150.1,25.3,147,23.8,134.8z"/>
	</g>
	<g>
		<path class="st0" d="M41.1,57l8.9-2.5l2.2,37.4l8-2.2l0.9,14.9l-17,4.7L41.1,57z"/>
	</g>
	<g>
		<path class="st0" d="M69.3,33.9l11.5,1l6.4,53.3l-9.6-0.8L77,80.3l-6.8-0.6l-0.9,6.9L61,85.9L69.3,33.9z M71.9,66.7l3.8,0.3
			l-1.6-16.9L71.9,66.7z"/>
	</g>
	<g>
		<path class="st0" d="M93.5,24.8l11.4,3.9l1.6,21.9l4.7-19.7l11.2,3.9l-3.8,52l-8.8-3l2-27.7l-6.7,26l-3-1l-2.5-29.2l-2,27.7
			l-7.8-2.7L93.5,24.8z"/>
	</g>
</g>
</svg>
