<?xml version="1.0" encoding="utf-8"?>
<!-- Generator: Adobe Illustrator 20.0.0, SVG Export Plug-In . SVG Version: 6.00 Build 0)  -->
<svg version="1.1" id="Layer_1" xmlns="http://www.w3.org/2000/svg" xmlns:xlink="http://www.w3.org/1999/xlink" x="0px" y="0px"
	 viewBox="0 0 307 176" style="enable-background:new 0 0 307 176;" xml:space="preserve">
<style type="text/css">
	.st0{fill:#FFFFFF;}
	.st1{fill:#F800FF;}
</style>
<polyline class="st0" points="74.4,83.2 28.8,133.2 130.5,82.8 124.9,151.4 185.1,64.3 211.8,107.3 215.4,57.8 268.9,73.8 
	254.7,40.2 278.3,42.8 269.4,27.1 "/>
<polygon class="st1" points="77.6,86.1 31.6,135.7 27.1,129.8 129.2,80.2 133.9,77.9 133.5,83.1 127.4,151.6 122.9,150 183.7,63.4 
	185.2,61.3 186.5,63.5 212.9,106.6 210.5,107.2 214.4,57.7 214.5,56.5 215.7,56.9 269.1,73.3 268.4,74 254.4,40.3 254.2,39.8 
	254.7,39.9 278.4,42.6 278.2,42.8 269.4,27.1 278.5,42.7 278.6,42.9 278.3,42.9 254.7,40.5 255,40.1 269.4,73.6 269.9,74.7 
	268.7,74.3 215.1,58.7 216.3,57.9 213.1,107.4 212.8,111.5 210.7,108 183.6,65.2 186.5,65.3 126.9,152.8 121.8,160.3 122.5,151.2 
	127.6,82.6 131.9,85.5 30.5,136.6 12.6,145.6 26,130.7 71.3,80.4 "/>
<g>
	
		<text transform="matrix(0.4536 -0.2558 0.1168 0.9932 164.3159 623.6042)" class="st1" style="font-family:'Graphik-Super'; font-size:71.8553px;">S</text>
	
		<text transform="matrix(0.456 -0.1275 5.824223e-02 0.9983 181.2504 581.7848)" class="st1" style="font-family:'Graphik-Super'; font-size:73.2224px;">L</text>
	
		<text transform="matrix(0.4567 3.825195e-02 -1.747226e-02 0.9998 199.9342 557.9308)" class="st1" style="font-family:'Graphik-Super'; font-size:73.6494px;">A</text>
	
		<text transform="matrix(0.4556 0.1575 -7.192921e-02 0.9974 226.8125 548.2129)" class="st1" style="font-family:'Graphik-Super'; font-size:72.9794px;">M</text>
</g>
</svg>
