<?xml version="1.0" encoding="utf-8"?>
<!-- Generator: Adobe Illustrator 20.0.0, SVG Export Plug-In . SVG Version: 6.00 Build 0)  -->
<svg version="1.1" id="Layer_1" xmlns="http://www.w3.org/2000/svg" xmlns:xlink="http://www.w3.org/1999/xlink" x="0px" y="0px"
	 viewBox="0 0 42.4 75.3" style="enable-background:new 0 0 42.4 75.3;" xml:space="preserve">
<style type="text/css">
	.st0{fill:#FF00FF;}
</style>
<path class="st0" d="M18.5,12.4c0.8,6,3.4,25-1.5,27.7c6.7-0.8,8,23.9,8,23.9s-2.3-23.6,2.4-26.5c-2.6,1-3.3,0.6-4.2-0.5
	c-0.8-1.1-1.7-2.6-2.2-5.4C20.5,28,19.3,18,18.5,12.4z"/>
<path class="st0" d="M4.6,20.9c0,0,0.8,7.5,0.3,9.3c0,0,0.5-2.1,1,3.2c0,0-0.4-5.6-0.1-6.3C5.7,27.1,5.2,28.2,4.6,20.9z"/>
<path class="st0" d="M27.9,26.2c0,0,0.4,4.9-0.5,6c0,0,1-1.4,1.1,2.1c0,0-0.1-3.7,0.4-4.1C29,30.2,28.1,30.9,27.9,26.2z"/>
<path class="st0" d="M30.9,36.2c0,0,0.4,4.9-0.5,6c0,0,1-1.4,1.1,2.1c0,0-0.1-3.7,0.4-4.1C32,40.2,31.1,40.9,30.9,36.2z"/>
<path class="st0" d="M17.8,44.5c0,0,1.8,15.2,0.2,19c0,0,1.7-4.4,2.6,6.4c0,0-0.9-11.5,0.1-12.8C20.7,57.1,19.2,59.4,17.8,44.5z"/>
<path class="st0" d="M32.5,8.5c0,0,1,15.3-0.8,19c0,0,1.9-4.3,2.3,6.6c0,0-0.3-11.5,0.7-12.8C34.7,21.2,33.1,23.4,32.5,8.5z"/>
<path class="st0" d="M29.9,49.2c0,0,0.4,4.9-0.5,6c0,0,1-1.4,1.1,2.1c0,0-0.1-3.7,0.4-4.1C31,53.2,30.1,53.9,29.9,49.2z"/>
</svg>
