<?xml version="1.0" encoding="utf-8"?>
<!-- Generator: Adobe Illustrator 20.0.0, SVG Export Plug-In . SVG Version: 6.00 Build 0)  -->
<svg version="1.1" id="Layer_1" xmlns="http://www.w3.org/2000/svg" xmlns:xlink="http://www.w3.org/1999/xlink" x="0px" y="0px"
	 viewBox="0 0 626 626.7" style="enable-background:new 0 0 626 626.7;" xml:space="preserve">
<style type="text/css">
	.st0{fill:#F800FF;}
</style>
<path class="st0" d="M37.2,607.5c0,0,1.4-2.5,4.2-7c2.8-4.5,6.9-11.2,12.4-19.5c5.5-8.3,12.3-18.3,20.2-29.7
	c8-11.3,17.2-24,27.6-37.5c10.4-13.5,22-28,34.7-42.9c12.7-14.9,26.5-30.3,41.4-45.7c14.8-15.4,30.7-30.8,47.6-45.7
	c16.8-14.9,34.6-29.3,53.2-42.6c18.6-13.2,38-25.5,58-35.9c2.5-1.3,5-2.6,7.5-3.9c2.5-1.3,5.1-2.4,7.6-3.6l3.8-1.8
	c1.3-0.6,2.5-1.2,3.8-1.7c2.6-1.1,5.1-2.2,7.6-3.3c1.3-0.5,2.5-1.1,3.8-1.6c1.3-0.5,2.6-1,3.9-1.5c2.6-1,5.1-2,7.7-2.9
	c2.6-0.9,5.2-1.8,7.7-2.6c2.6-0.9,5.1-1.8,7.7-2.5c20.5-6.3,41.1-10.2,60.7-11.7c19.7-1.6,38.4-0.3,55.3,2.5
	c4.2,0.8,8.4,1.6,12.4,2.4c4,1,7.9,2,11.7,3c7.5,2.3,14.6,4.5,21,7.1c6.6,2.4,12.4,5.3,17.9,7.7c0.7,0.3,1.4,0.6,2,0.9
	c0.7,0.3,1.3,0.7,1.9,1c1.3,0.7,2.5,1.3,3.7,2c2.4,1.3,4.8,2.5,7,3.7c4.3,2.5,8.1,4.9,11.4,6.9c1.7,1,3.1,2,4.5,2.9
	c1.4,0.9,2.6,1.8,3.7,2.5c4.4,3,6.7,4.6,6.7,4.6s-2.4-1.5-6.9-4.4c-1.1-0.7-2.4-1.5-3.8-2.4c-1.4-0.9-2.9-1.8-4.6-2.8
	c-3.4-1.9-7.2-4-11.6-6.5c-2.2-1.1-4.6-2.2-7-3.5c-1.2-0.6-2.5-1.2-3.8-1.9c-0.6-0.3-1.3-0.6-1.9-1c-0.7-0.3-1.4-0.6-2-0.9
	c-5.5-2.3-11.4-5-18-7.2c-13-4.6-28-8.8-44.8-11.2c-1-0.2-2.1-0.3-3.2-0.4c-1.1-0.1-2.1-0.2-3.2-0.4c-2.1-0.2-4.3-0.5-6.5-0.7
	l-1.6-0.2l-1.7-0.1c-1.1-0.1-2.2-0.1-3.3-0.2c-2.2-0.1-4.5-0.2-6.8-0.4c-4.6-0.1-9.2,0-13.9,0c-2.4,0.1-4.7,0.3-7.1,0.4
	c-1.2,0.1-2.4,0.1-3.6,0.2c-1.2,0.1-2.4,0.1-3.6,0.3c-19.3,1.7-39.4,5.9-59.6,12.3c-20.2,6.3-40.3,15.2-60,25.5
	c-19.7,10.3-38.8,22.5-57.2,35.7c-18.5,13.1-36.1,27.3-52.9,42c-8.4,7.3-16.5,14.8-24.5,22.3c-4,3.8-7.9,7.5-11.7,11.3
	c-3.8,3.8-7.7,7.5-11.4,11.4c-14.9,15.2-28.9,30.3-41.7,44.9c-12.8,14.7-24.7,28.8-35.3,42.1c-21.3,26.6-38.1,49.5-49.5,65.8
	c-5.7,8.2-10.1,14.6-13.1,19C38.7,605.1,37.2,607.5,37.2,607.5z"/>
<path class="st0" d="M22.2,612.5c0,0,1.2-2.5,3.6-7c2.4-4.6,5.9-11.3,10.6-19.6c4.7-8.4,10.5-18.5,17.3-30.1
	c6.8-11.5,14.7-24.4,23.6-38.3c8.9-13.9,18.7-28.8,29.6-44.3c10.8-15.5,22.5-31.6,35.1-47.9c12.6-16.3,26-32.9,40.3-49.2
	c14.2-16.3,29.2-32.5,44.8-48c15.7-15.5,31.9-30.4,48.7-44.2c16.7-13.8,34-26.4,51.4-37.6c17.4-11.2,35-20.9,52.3-28.6
	c17.3-7.8,34.3-13.7,50.4-17.8c16-4.1,31.1-6.4,44.5-7.3c1.7-0.2,3.3-0.2,4.9-0.3c1.6-0.1,3.2-0.1,4.8-0.2c1.6-0.1,3.1-0.1,4.6-0.2
	c1.5,0,3,0.1,4.4,0.1c2.9,0.1,5.7,0.1,8.3,0.2c2.7,0.2,5.2,0.4,7.6,0.6c4.8,0.2,9.1,1,12.8,1.4c1.8,0.3,3.6,0.4,5.1,0.7
	c1.6,0.3,3,0.6,4.2,0.8c5.1,1,7.7,1.5,7.7,1.5s-2.7-0.4-7.8-1.2c-1.3-0.2-2.7-0.4-4.2-0.7c-1.6-0.2-3.3-0.3-5.1-0.5
	c-3.7-0.3-8-0.9-12.8-1c-2.4-0.1-4.9-0.2-7.6-0.3c-2.6,0-5.4,0-8.3,0.1c-1.4,0-2.9,0-4.4,0c-1.5,0.1-3,0.2-4.6,0.3
	c-1.6,0.1-3.1,0.2-4.7,0.3c-1.6,0.1-3.2,0.2-4.9,0.4c-3.3,0.4-6.7,0.8-10.2,1.2c-3.5,0.5-7.1,1.2-10.8,1.8c-7.3,1.4-15,3.1-22.9,5.3
	c-15.8,4.4-32.5,10.5-49.4,18.5c-17,7.9-34.2,17.7-51.4,28.9c-17.1,11.2-34.1,24-50.6,37.7c-16.5,13.8-32.6,28.6-48.2,44
	c-15.6,15.4-30.5,31.4-44.7,47.6c-14.2,16.2-27.8,32.5-40.5,48.7c-12.7,16.2-24.6,32-35.6,47.3c-11,15.3-21.1,29.9-30.3,43.6
	c-9.1,13.7-17.4,26.3-24.5,37.6c-7.1,11.3-13.2,21.3-18.1,29.5c-4.9,8.3-8.7,14.8-11.3,19.2C23.5,610.1,22.2,612.5,22.2,612.5z"/>
<g>
	<path class="st0" d="M95.2,411l26.9-14.6c2.2,7.7,6.4,12.7,15.7,7.7c6.6-3.6,9-9.6,7.6-15.8c-1.5-6.7-5.1-7.1-15.1-3.8
		c-26.7,10-37.8,4.2-43.5-21.8c-5.1-23.3,4.7-47.6,27-59.7c22.2-12.1,37.3-6.1,44.9,20.6l-26.3,14.3c-2.3-7.4-6.4-10.1-12.4-6.9
		c-5.9,3.2-8.1,8.5-6.9,14c1.3,6,4.6,7.4,14.8,3.8c23.3-8.9,37.6-7.6,43.7,20.4c5.1,23.5-3.6,50-27.7,63
		C118.7,446,102.1,439.1,95.2,411z"/>
</g>
<g>
	<path class="st0" d="M151,262.7l17.9-10.5l18.7,70.1l-5.6-77.8l15.4-9l20,70.2l-5.6-78.7l16.5-9.6l7.6,131.2l-17.9,10.5L197.9,290
		l4.4,78.5l-17.7,10.3L151,262.7z"/>
</g>
<g>
	<path class="st0" d="M240.7,265.5l0-1.2c-0.2-32.6,13.2-58.1,30.5-63.4c17.7-5.5,31,10,31.2,43.4l0,1.2c0.2,32.9-12,58.7-30.9,64.6
		C252.6,315.9,240.9,297.5,240.7,265.5z M283.4,252l0-1.2c-0.1-17.9-4.8-26.1-12.1-23.9c-7.1,2.2-11.6,13.2-11.5,31.2l0,1.2
		c0.1,18,4.7,26.5,12,24.2C279,281.4,283.5,269.6,283.4,252z"/>
</g>
<g>
	<path class="st0" d="M305.1,238.3l0.1-1c3.3-29,15.8-50.1,29.1-52.8c13.6-2.8,21.8,12.5,18.5,42.2l-0.1,1
		c-3.3,29.3-15,50.8-29.6,53.8C308.6,284.5,301.9,266.8,305.1,238.3z M337.9,231.3l0.1-1c1.8-15.9-0.8-23.8-6.4-22.6
		c-5.5,1.1-10,10.4-11.8,26.4l-0.1,1c-1.8,16,0.7,24.1,6.3,22.9C331.6,256.9,336.2,246.9,337.9,231.3z"/>
</g>
<g>
	<path class="st0" d="M357.4,238.5l0.2-0.9c6.8-24.5,19.2-40.9,29.4-41.7c10.4-0.7,14.1,13.4,7.1,38.5l-0.2,0.9
		c-6.9,24.7-18.7,41.7-29.9,42.5C352.9,278.5,350.7,262.5,357.4,238.5z M382.6,236.6l0.2-0.9c3.7-13.4,3-20.5-1.2-20.2
		c-4.2,0.3-8.9,7.7-12.7,21.2l-0.2,0.9c-3.8,13.5-3.1,20.7,1.1,20.4C374,257.7,378.9,249.8,382.6,236.6z"/>
</g>
<g>
	<path class="st0" d="M393.1,253.4l8.6,0.6c-1.4,3.8-1.7,6.1,0.4,6.2c1.8,0.1,3.4-1.5,4.5-4c1.1-2.6,0.7-4-2.2-5.2
		c-5.9-2.2-7-6.7-1.4-19.2c6-13.4,13.8-19.5,19.9-19.1c6.5,0.4,8.6,5.7,2.8,20.1l-8.4-0.5c1.3-3.5,1.3-5.6-0.4-5.7s-3.3,1.6-4.3,3.9
		c-1.2,2.7-0.6,3.9,1.9,4.7c6.3,2.5,7.8,6.7,2.2,19.4c-6.4,14.4-13.8,20.3-20.9,19.9C388.5,274,387.4,266.7,393.1,253.4z"/>
</g>
<g>
	<path class="st0" d="M447.2,225.1l7.3,2l-14.3,19.6l6.8,1.8l14.3-19.6l7.3,2L430,283.9l-7.3-2l14.9-20.4l-6.8-1.8l-14.9,20.4
		l-7.3-2L447.2,225.1z"/>
</g>
<path class="st0" d="M421.2,169.5c1.1-5.6,2-11.2,2.8-16.9c0.8-5.6,1.5-11.3,1.8-17c0.2-2.8,0.2-5.7,0.1-8.4c-0.1-2.8-0.5-5.6-1.4-8
	c-0.5-1.2-1.1-2.3-1.9-2.9c-0.8-0.6-1.7-0.9-2.9-0.7c-1.1,0.2-2.3,0.6-3.5,1.3c-1.2,0.6-2.3,1.4-3.4,2.2c-2.2,1.7-4.2,3.6-6.2,5.6
	c-2,2-3.9,4.1-5.7,6.2c-3.7,4.3-7.2,8.7-10.6,13.3c-3.4,4.5-6.6,9.2-9.8,13.9c-1.6,2.3-3.2,4.7-4.7,7.1c-1.6,2.4-3.1,4.8-4.6,7.1
	l-2.7,4.3l-1.9-4.7c-3.5-8.9-7.4-17.6-12-25.9c-2.3-4.2-4.8-8.2-7.5-12c-2.7-3.8-5.7-7.5-8.9-10.7c-3.3-3.2-6.9-6.1-10.8-8.2
	c-3.9-2.1-8.2-3.5-12.6-3.9c-4.4-0.3-8.9,0.3-13.1,1.7c-4.3,1.4-8.4,3.6-12.3,6.1c-3.9,2.6-7.5,5.5-11,8.7
	c-3.4,3.2-6.7,6.6-9.9,10.2c-6.3,7.1-12,14.8-17.3,22.8c-5.3,8-10.3,16.2-14.9,24.6c-2.3,4.2-4.6,8.4-6.7,12.7
	c-2.2,4.3-4.3,8.6-6.3,12.9l-1.1,2.3l-1.8-1.8c-1.4-1.4-3-2.7-4.7-4c-1.6-1.3-3.3-2.4-5.1-3.5c-3.5-2.2-7.2-4.1-11-5.4
	c-3.9-1.3-7.9-2.1-11.9-1.8c-4,0.2-8,1.4-11.5,3.4c-1.8,1-3.4,2.3-4.9,3.6c-1.5,1.4-2.9,2.9-4.2,4.5c-1.3,1.6-2.5,3.3-3.6,5.1
	c-1.1,1.8-2.1,3.6-3,5.5c-0.5,0.9-0.9,1.9-1.3,2.8c-0.4,1-0.9,1.9-1.2,2.9c-0.4,1-0.8,1.9-1.2,2.9c-0.4,1-0.7,2-1.1,3
	c-0.4,1-0.7,2-1,3c-0.3,1-0.6,2-0.9,3c-0.6,2-1.1,4.1-1.7,6.1c0.4-2.1,0.9-4.1,1.4-6.2c0.2-1,0.5-2.1,0.8-3.1c0.3-1,0.6-2,0.9-3.1
	c0.3-1,0.6-2,0.9-3c0.3-1,0.7-2,1-3c0.4-1,0.7-2,1.1-3c0.4-1,0.8-2,1.3-2.9c0.9-1.9,1.8-3.8,2.9-5.7c1.1-1.8,2.2-3.7,3.5-5.4
	c1.3-1.7,2.7-3.4,4.3-4.9c1.6-1.5,3.3-2.9,5.1-4c3.7-2.4,8-3.8,12.4-4.2c4.4-0.4,8.8,0.3,13,1.6c4.2,1.3,8.1,3.2,11.8,5.4
	c1.9,1.1,3.7,2.3,5.4,3.6c1.8,1.3,3.4,2.6,5.1,4.1l-2.9,0.6c1.9-4.5,3.9-8.9,6-13.3c2.1-4.4,4.3-8.7,6.5-13
	c4.5-8.6,9.3-17,14.6-25.2c5.3-8.2,11-16.1,17.4-23.6c6.4-7.4,13.4-14.4,21.8-20c4.2-2.8,8.7-5.2,13.5-6.8
	c4.8-1.7,10.1-2.5,15.4-2.1c5.2,0.4,10.3,2,14.9,4.5c4.5,2.5,8.5,5.7,12.1,9.3c3.5,3.6,6.7,7.5,9.5,11.5c2.8,4.1,5.4,8.3,7.7,12.6
	c4.7,8.6,8.5,17.6,12,26.7l-4.5-0.4c1.6-2.4,3.2-4.8,4.8-7.2c1.6-2.4,3.2-4.7,4.9-7.1c3.3-4.7,6.8-9.3,10.3-13.8
	c3.5-4.5,7.2-9,11.1-13.2c1.9-2.1,4-4.2,6.1-6.2c2.1-2,4.3-3.9,6.8-5.7c1.2-0.9,2.5-1.7,3.9-2.4c1.4-0.7,2.9-1.3,4.6-1.4
	c0.9-0.1,1.8,0,2.7,0.2c0.9,0.3,1.8,0.7,2.4,1.3c1.4,1.2,2.1,2.8,2.6,4.2c0.9,3,1.1,6,1.2,8.9c0,2.9-0.2,5.8-0.5,8.7
	c-0.6,5.7-1.6,11.4-2.7,17C424,158.4,422.6,164,421.2,169.5z"/>
<path class="st0" d="M231.8,422.8c-2.1,4.4-4.1,8.8-6,13.3c-1.9,4.4-3.8,8.9-5.6,13.4c-3.5,9-6.8,18.1-9,27.5c-0.5,2.3-1,4.7-1.3,7
	c-0.3,2.3-0.4,4.7-0.1,6.8c0.2,1.1,0.5,2.1,0.9,2.9c0.4,0.8,1,1.3,1.8,1.6c1.5,0.6,3.7,0.3,5.8-0.4c2.1-0.7,4.2-1.7,6.3-2.9
	c2-1.1,4.1-2.4,6-3.7c2-1.4,4-2.8,5.8-4.3l2.8-2.2l2.7-2.3c3.6-3.1,7-6.4,10.4-9.9c1.6-1.8,3.3-3.5,4.8-5.3c0.8-0.9,1.6-1.8,2.3-2.7
	l2.3-2.8c1.5-1.8,2.9-3.8,4.4-5.7c1.4-2,2.8-3.9,4.1-5.9c2.7-3.9,5.2-8,7.7-12.1c4.9-8.3,9.3-16.8,13.1-25.6
	c1.9-4.4,3.8-8.8,5.5-13.3c1.7-4.5,3.3-9,4.6-13.5l1.9-6.6l3.2,6c1.4,2.6,3.1,5.3,4.9,7.9c1.8,2.5,3.8,5,5.9,7.2
	c2.1,2.2,4.4,4.3,6.8,6c2.4,1.7,5.1,3.1,7.8,3.9c2.7,0.8,5.6,0.9,8.3,0.3c2.7-0.6,5.4-1.9,7.7-3.7c0.6-0.4,1.2-0.9,1.7-1.4l0.9-0.7
	l0.8-0.8l1.5-1.5l1.6-1.8c0.3-0.3,0.5-0.6,0.8-0.9l0.6-0.9c0.4-0.6,0.9-1.2,1.3-1.8c0.8-1.3,1.6-2.6,2.2-4c1.4-2.7,2.4-5.6,3.3-8.6
	c0.8-3,1.4-6.1,1.8-9.2c0.3-3.1,0.6-6.3,0.5-9.4c0-3.2-0.1-6.3-0.4-9.5c-0.3-3.2-0.7-6.3-1.2-9.5c-0.5-3.1-1.2-6.3-1.9-9.4
	c-0.7-3.1-1.6-6.2-2.5-9.3c-0.9-3.1-1.9-6.1-3.1-9.1l-2.4-6.3l4.3,5.1c0.5,0.6,1.1,1.2,1.7,1.8c0.6,0.6,1.3,1.1,1.9,1.7
	c0.7,0.5,1.3,1,2.1,1.5c0.7,0.5,1.4,0.9,2.2,1.3c0.7,0.4,1.5,0.7,2.3,1c0.8,0.3,1.6,0.5,2.4,0.6c0.8,0.1,1.6,0.2,2.5,0.1
	c0.8-0.1,1.6-0.2,2.4-0.4c0.8-0.3,1.6-0.6,2.3-1c0.4-0.2,0.7-0.4,1.1-0.7c0.3-0.2,0.7-0.5,1-0.8l1-0.8l0.9-0.9
	c0.6-0.6,1.1-1.3,1.7-2c0.5-0.7,1-1.4,1.5-2.1c0.4-0.8,0.9-1.5,1.3-2.3c0.4-0.8,0.8-1.5,1.2-2.3l1.1-2.4l-0.9,2.5
	c-0.3,0.8-0.7,1.6-1,2.4c-0.4,0.8-0.8,1.6-1.2,2.4c-0.4,0.8-0.9,1.5-1.4,2.3c-0.5,0.7-1,1.5-1.6,2.1l-0.9,1l-1,0.9
	c-0.3,0.3-0.7,0.6-1,0.9c-0.4,0.3-0.7,0.6-1.1,0.8c-0.8,0.5-1.6,0.9-2.5,1.2c-0.9,0.3-1.8,0.5-2.7,0.6c-0.9,0.1-1.9,0.1-2.8,0
	c-0.9-0.1-1.8-0.3-2.7-0.5c-0.4-0.1-0.9-0.3-1.3-0.4c-0.4-0.2-0.9-0.3-1.3-0.5c-0.8-0.4-1.6-0.8-2.4-1.3c-0.8-0.5-1.5-1-2.3-1.5
	c-0.7-0.5-1.4-1.1-2.1-1.7c-0.7-0.6-1.3-1.2-2-1.9l1.9-1.2c1.3,3,2.5,6.1,3.5,9.1c1.1,3.1,2,6.2,2.9,9.3c0.8,3.1,1.6,6.3,2.3,9.5
	c0.6,3.2,1.2,6.4,1.6,9.7c0.2,1.6,0.3,3.3,0.5,4.9c0.1,1.6,0.2,3.3,0.2,4.9c0.1,3.3-0.1,6.6-0.3,9.9c-0.3,3.3-0.9,6.6-1.7,9.9
	c-0.9,3.2-1.9,6.5-3.4,9.5c-0.7,1.6-1.6,3-2.4,4.5c-0.5,0.7-1,1.4-1.5,2.2l-0.8,1.1c-0.3,0.3-0.5,0.6-0.8,0.9l-1.5,1.9l-0.2,0.2
	l-0.1,0.1l-0.2,0.2l-0.4,0.5l-0.9,0.9l-0.9,0.9l-1,0.8c-0.7,0.6-1.3,1.2-2,1.7c-2.8,2.1-6,3.8-9.6,4.7c-3.6,0.9-7.4,0.8-10.9-0.2
	c-3.5-1-6.7-2.6-9.5-4.6c-2.8-2-5.4-4.3-7.7-6.7c-2.3-2.5-4.4-5.1-6.4-7.8c-2-2.7-3.7-5.5-5.4-8.5l5.2-0.5c-1.4,4.8-3,9.4-4.7,14
	c-1.7,4.6-3.6,9.1-5.6,13.6c-4,9-8.5,17.7-13.6,26.1c-2.6,4.2-5.2,8.4-8,12.4c-1.4,2-2.9,4-4.3,6c-1.5,1.9-3,3.9-4.6,5.8l-2.4,2.8
	c-0.8,0.9-1.6,1.8-2.5,2.8c-1.6,1.9-3.4,3.6-5.1,5.4c-1.7,1.7-3.5,3.5-5.3,5.1c-1.9,1.6-3.7,3.3-5.6,4.8l-2.9,2.3l-3,2.2
	c-2,1.5-4,2.8-6,4.2c-2.1,1.4-4.2,2.6-6.5,3.8c-2.2,1.2-4.5,2.2-7,3c-1.3,0.4-2.6,0.7-4,0.7c-1.4,0.1-3,0-4.4-0.7
	c-1.5-0.7-2.7-2-3.4-3.3c-0.7-1.4-1-2.7-1.2-4.1c-0.3-2.7-0.1-5.2,0.3-7.7c0.4-2.5,0.9-4.9,1.6-7.3c1.3-4.8,2.9-9.4,4.7-13.9
	c1.8-4.6,3.7-9,5.7-13.5C222.7,440,227.1,431.3,231.8,422.8z"/>
<path class="st0" d="M242.2,143.5c0,0-0.2-0.2-0.5-0.5c-0.3-0.3-0.9-0.8-1.5-1.4c-1.3-1.2-3-3-5.1-5.3c-2-2.2-4.3-4.9-6.6-7.8
	c-1.2-1.5-2.4-3-3.5-4.6c-1.2-1.6-2.4-3.2-3.5-4.8c-1.1-1.6-2.3-3.3-3.4-4.9c-1.1-1.6-2.1-3.3-3.2-4.8c-2-3.2-3.8-6.2-5.2-8.8
	c-1.4-2.6-2.6-4.9-3.3-6.5c-0.8-1.6-1.1-2.6-1.1-2.6s0.8,0.7,2,1.9c1.3,1.2,3,3,5.1,5.3c2,2.2,4.3,4.9,6.6,7.8
	c1.2,1.5,2.4,3,3.5,4.6c1.2,1.6,2.4,3.2,3.5,4.8c1.1,1.6,2.3,3.3,3.4,4.9c1.1,1.6,2.2,3.3,3.1,4.8c2,3.2,3.8,6.2,5.2,8.8
	c1.4,2.6,2.6,4.9,3.3,6.5c0.4,0.8,0.7,1.4,0.8,1.9C242.1,143.3,242.2,143.5,242.2,143.5z"/>
<path class="st0" d="M153,531.4c0,0,0-0.2,0.1-0.5c0.1-0.3,0.2-0.7,0.4-1.3c0.3-1.1,0.9-2.6,1.6-4.3c0.7-1.7,1.7-3.7,2.8-5.7
	c0.6-1,1.2-2.1,1.8-3.1c0.6-1,1.3-2.1,2-3.1c0.7-1,1.4-2,2.1-3c0.7-1,1.5-1.9,2.2-2.8c1.5-1.8,2.9-3.4,4.3-4.8
	c1.3-1.3,2.5-2.4,3.4-3.1c0.9-0.7,1.4-1.1,1.4-1.1s-0.1,0.7-0.5,1.7c-0.3,1.1-0.9,2.6-1.6,4.3c-0.7,1.7-1.7,3.7-2.8,5.7
	c-0.6,1-1.2,2.1-1.8,3.1c-0.6,1-1.3,2.1-2,3.1c-0.7,1-1.4,2-2.1,3c-0.7,1-1.5,1.9-2.2,2.8c-1.5,1.8-2.9,3.4-4.3,4.8
	c-1.3,1.3-2.5,2.4-3.4,3.1c-0.4,0.4-0.8,0.6-1,0.8C153.2,531.3,153,531.4,153,531.4z"/>
<path class="st0" d="M205.2,577.2c0,0-0.1-0.3-0.3-0.8c-0.2-0.5-0.5-1.3-0.8-2.2c-0.6-1.9-1.5-4.7-2.4-8c-0.9-3.3-1.8-7.3-2.7-11.5
	c-0.4-2.1-0.9-4.3-1.3-6.5c-0.4-2.2-0.8-4.5-1.2-6.7c-0.3-2.3-0.7-4.5-1-6.8c-0.3-2.2-0.6-4.4-0.8-6.6c-0.5-4.3-0.8-8.3-1-11.7
	c-0.2-3.5-0.3-6.3-0.3-8.4c0-2,0.1-3.2,0.1-3.2s0.4,1.1,1.1,3c0.6,1.9,1.5,4.7,2.4,8c0.9,3.3,1.8,7.3,2.7,11.5
	c0.4,2.1,0.9,4.3,1.3,6.5c0.4,2.2,0.8,4.5,1.2,6.7c0.3,2.3,0.7,4.5,1,6.8c0.3,2.2,0.6,4.4,0.8,6.6c0.5,4.3,0.8,8.3,1,11.7
	c0.2,3.5,0.3,6.3,0.3,8.4c0,1,0,1.8,0,2.4C205.2,576.9,205.2,577.2,205.2,577.2z"/>
<path class="st0" d="M152.2,597.3c0,0,0.1-0.4,0.2-1.1c0.1-0.7,0.3-1.7,0.6-3.1c0.3-1.3,0.6-2.9,1-4.7c0.4-1.8,0.8-3.9,1.4-6.1
	c0.5-2.2,1.1-4.6,1.8-7.2c0.7-2.5,1.4-5.2,2.1-7.9c0.8-2.7,1.6-5.6,2.4-8.4c0.8-2.9,1.8-5.8,2.7-8.7c0.9-2.9,1.9-5.8,2.8-8.6
	c0.9-2.8,1.9-5.6,2.9-8.3c1-2.7,1.9-5.3,2.9-7.7c0.9-2.4,1.9-4.7,2.7-6.8c0.8-2.1,1.7-4,2.4-5.8c0.7-1.7,1.4-3.2,2-4.4
	c1.1-2.4,1.8-3.8,1.8-3.8s-0.2,1.5-0.7,4.1c-0.3,1.3-0.6,2.9-1,4.7c-0.4,1.8-0.8,3.9-1.4,6.1c-0.5,2.2-1.1,4.6-1.8,7.2
	c-0.7,2.5-1.4,5.2-2.1,7.9c-0.8,2.7-1.6,5.6-2.4,8.4c-0.8,2.9-1.8,5.8-2.7,8.7c-0.9,2.9-1.9,5.8-2.8,8.6c-1,2.8-1.9,5.6-2.9,8.3
	c-1,2.7-1.9,5.3-2.9,7.7c-0.9,2.4-1.9,4.7-2.7,6.8c-0.8,2.1-1.7,4-2.4,5.8c-0.7,1.7-1.4,3.2-1.9,4.4c-0.5,1.2-1,2.2-1.3,2.8
	C152.3,597,152.2,597.3,152.2,597.3z"/>
<path class="st0" d="M245.2,125.7c0,0-0.1-0.3-0.4-0.7c-0.2-0.5-0.6-1.2-0.9-2.1c-0.8-1.8-1.9-4.5-3-7.7c-1.2-3.2-2.4-6.9-3.7-11
	c-0.6-2-1.2-4.1-1.8-6.3c-0.6-2.1-1.2-4.3-1.7-6.5c-0.5-2.2-1.1-4.4-1.6-6.5c-0.5-2.2-0.9-4.3-1.4-6.4c-0.8-4.1-1.5-8-2-11.4
	c-0.5-3.4-0.8-6.2-1-8.2c-0.2-2-0.2-3.1-0.2-3.1s0.5,1,1.3,2.9c0.8,1.8,1.9,4.5,3,7.7c1.2,3.2,2.4,6.9,3.7,11c0.6,2,1.2,4.1,1.8,6.3
	c0.6,2.1,1.2,4.3,1.7,6.5c0.5,2.2,1.1,4.4,1.6,6.5c0.5,2.2,1,4.3,1.4,6.4c0.8,4.1,1.5,8,2,11.4c0.5,3.4,0.8,6.2,1,8.2
	c0.1,1,0.1,1.8,0.2,2.3C245.2,125.5,245.2,125.7,245.2,125.7z"/>
<path class="st0" d="M270.8,117.5c0,0,0-0.4-0.1-1.2c0-0.8-0.1-1.9-0.1-3.4c0-1.4-0.1-3.2,0-5.2c0-2,0-4.3,0.1-6.8
	c0.1-2.5,0.1-5.2,0.2-8c0.1-2.8,0.3-5.8,0.4-8.9c0.2-3.1,0.4-6.3,0.6-9.5c0.2-3.2,0.5-6.5,0.8-9.8c0.3-3.3,0.6-6.6,1-9.8
	c0.3-3.2,0.7-6.4,1.1-9.5c0.4-3.1,0.8-6,1.2-8.8c0.4-2.8,0.8-5.5,1.2-7.9c0.4-2.4,0.8-4.7,1.2-6.7c0.3-2,0.7-3.7,1-5.1
	c0.6-2.8,1-4.5,1-4.5s0.1,1.7,0.1,4.6c0,1.4,0.1,3.2,0,5.2c0,2,0,4.3-0.1,6.8c0,2.5-0.1,5.2-0.2,8c-0.1,2.8-0.3,5.8-0.4,8.9
	c-0.2,3.1-0.4,6.3-0.6,9.5c-0.2,3.2-0.5,6.5-0.8,9.8c-0.3,3.3-0.6,6.6-1,9.8c-0.3,3.2-0.7,6.4-1.1,9.5c-0.4,3.1-0.8,6-1.2,8.8
	c-0.4,2.8-0.8,5.5-1.2,7.9c-0.4,2.4-0.8,4.7-1.2,6.7c-0.3,2-0.7,3.7-1,5.1c-0.3,1.4-0.5,2.5-0.7,3.3
	C270.9,117.1,270.8,117.5,270.8,117.5z"/>
</svg>
