<?xml version="1.0" encoding="utf-8"?>
<!-- Generator: Adobe Illustrator 20.0.0, SVG Export Plug-In . SVG Version: 6.00 Build 0)  -->
<svg version="1.1" id="Layer_1" xmlns="http://www.w3.org/2000/svg" xmlns:xlink="http://www.w3.org/1999/xlink" x="0px" y="0px"
	 viewBox="0 0 626 626.7" style="enable-background:new 0 0 626 626.7;" xml:space="preserve">
<style type="text/css">
	.st0{fill:#F800FF;}
</style>
<path class="st0" d="M55.8,589.6c0,0,0.8-3,2.4-8.5c1.6-5.5,4.1-13.5,7.5-23.7c3.4-10.1,7.8-22.4,13.2-36.3
	c5.4-13.9,11.8-29.5,19.4-46.2c7.5-16.7,16.3-34.6,26.2-53.2c9.9-18.6,21.1-37.8,33.5-57.1c12.4-19.3,26.1-38.8,41.1-57.7
	c14.9-19,31.3-37.3,48.7-54.6c17.4-17.3,36.1-33.3,55.5-47.8c4.8-3.7,9.8-7,14.7-10.5c2.4-1.7,5-3.3,7.5-4.9c2.5-1.6,5-3.2,7.5-4.8
	c2.5-1.5,5.1-3,7.6-4.6c1.3-0.8,2.5-1.5,3.8-2.3c1.3-0.8,2.5-1.5,3.8-2.2c2.6-1.4,5.1-2.8,7.7-4.2c1.3-0.7,2.5-1.4,3.8-2.1
	c1.3-0.7,2.6-1.3,3.9-2c20.5-10.5,41.2-18.9,61.4-25.2c20.1-6.4,39.7-10.6,57.9-13.4c18.2-2.9,35.1-3.8,50-4.3c3.7,0,7.3,0,10.8,0
	c1.7,0,3.5,0,5.1,0c1.7,0,3.3,0.1,4.9,0.2c3.2,0.1,6.3,0.2,9.3,0.4c1.5,0.1,2.9,0.1,4.3,0.2c1.4,0.1,2.8,0.2,4.1,0.3
	c5.3,0.4,10.1,0.8,14.2,1.2c4.1,0.5,7.6,1,10.5,1.3c5.7,0.7,8.7,1.1,8.7,1.1s-3-0.3-8.7-0.8c-2.9-0.3-6.4-0.6-10.5-0.9
	c-4.1-0.2-8.9-0.5-14.2-0.8c-1.3-0.1-2.7-0.1-4.1-0.2c-1.4,0-2.8,0-4.3-0.1c-2.9,0-6-0.1-9.2-0.1c-1.6,0-3.2-0.1-4.9,0
	c-1.7,0-3.4,0.1-5.1,0.1c-3.5,0.1-7.1,0.2-10.8,0.3c-3.7,0.2-7.5,0.5-11.5,0.8c-2,0.1-4,0.3-6,0.4c-2,0.2-4.1,0.4-6.1,0.7
	c-4.1,0.5-8.4,0.9-12.7,1.5c-4.3,0.7-8.7,1.3-13.2,2c-18,3.1-37.2,7.7-57.1,14.3c-19.8,6.5-40.2,15.1-60.4,25.6
	c-1.3,0.7-2.5,1.3-3.8,2c-1.2,0.7-2.5,1.4-3.7,2.1c-2.5,1.4-5,2.8-7.5,4.2c-1.3,0.7-2.5,1.4-3.7,2.2c-1.2,0.8-2.5,1.5-3.7,2.3
	c-2.5,1.5-5,3-7.5,4.6c-9.8,6.4-19.7,13-29.2,20.2c-19.2,14.3-37.6,30.2-54.8,47.4c-17.3,17.1-33.5,35.2-48.4,54
	c-14.9,18.8-28.8,37.9-41.2,57c-12.5,19.1-23.9,38.1-34,56.4c-10.1,18.3-19.1,36-27,52.5C93.3,493,86.5,508.3,80.8,522
	c-5.7,13.7-10.4,25.8-14.1,35.9c-3.7,10-6.5,18-8.2,23.4C56.6,586.7,55.8,589.6,55.8,589.6z"/>
<path class="st0" d="M43.4,599.5c0,0,0.4-3.3,1.3-9.5c0.9-6.2,2.3-15.3,4.5-26.8c2.2-11.5,5-25.4,8.8-41.3
	c3.7-15.9,8.3-33.7,14.1-52.9c5.8-19.2,12.5-39.9,20.6-61.5c8.1-21.6,17.3-44.1,28.2-66.7c2.7-5.7,5.5-11.4,8.4-17
	c1.5-2.8,2.9-5.7,4.4-8.5c1.5-2.8,3-5.7,4.6-8.5c1.5-2.9,3.1-5.7,4.7-8.5c1.6-2.8,3.2-5.7,4.8-8.5c1.7-2.8,3.4-5.6,5.1-8.4l2.5-4.2
	l2.6-4.2c1.8-2.8,3.5-5.6,5.3-8.4c1.8-2.8,3.7-5.5,5.5-8.3c3.6-5.6,7.6-11,11.4-16.4c1.9-2.7,4-5.4,6-8.1c2-2.7,4-5.4,6.1-8
	c4.2-5.2,8.3-10.5,12.7-15.6c8.6-10.3,17.9-20,27.3-29.6c2.4-2.3,4.8-4.6,7.3-6.9l3.6-3.5c1.2-1.1,2.5-2.2,3.7-3.3
	c2.5-2.2,5-4.4,7.5-6.6c2.5-2.2,5.1-4.2,7.7-6.4l3.8-3.1l1.9-1.6l2-1.5c2.6-2,5.3-4,7.9-6c2.6-2,5.3-3.8,8-5.7
	c2.7-1.9,5.4-3.7,8-5.5c2.7-1.7,5.5-3.5,8.2-5.2c2.7-1.7,5.4-3.5,8.2-5c5.6-3.1,11-6.4,16.7-9.2c22.4-11.6,45.3-20.4,67.6-26.5
	c22.3-6.2,43.9-9.7,64-11.4c2.5-0.2,5-0.4,7.4-0.6c1.2-0.1,2.4-0.2,3.7-0.3c1.2-0.1,2.4-0.1,3.6-0.1c4.8-0.2,9.5-0.3,14.1-0.5
	c0.6,0,1.1,0,1.7-0.1c0.6,0,1.1,0,1.7,0c1.1,0,2.3,0,3.4,0c2.2,0,4.4,0.1,6.6,0.1c2.2,0,4.3,0.1,6.4,0.1c1.1,0,2.1,0.1,3.1,0.1
	c1,0.1,2.1,0.1,3.1,0.2c4.1,0.2,8,0.5,11.8,0.7c1,0.1,1.9,0.1,2.8,0.2c0.9,0.1,1.9,0.2,2.8,0.3c1.8,0.2,3.6,0.4,5.4,0.6
	c7,0.8,13.5,1.3,19.3,2.3c5.8,0.9,11,1.6,15.4,2.4c4.5,0.9,8.3,1.6,11.3,2.2c6.1,1.2,9.4,1.9,9.4,1.9s-3.3-0.5-9.5-1.6
	c-3.1-0.5-6.9-1.1-11.4-1.9c-4.5-0.6-9.7-1.2-15.5-1.9c-5.8-0.8-12.2-1.3-19.3-1.8c-1.8-0.1-3.5-0.3-5.4-0.4
	c-0.9-0.1-1.8-0.2-2.8-0.2c-0.9,0-1.9-0.1-2.8-0.1c-3.8-0.1-7.7-0.3-11.8-0.4c-1,0-2-0.1-3.1-0.1c-1,0-2.1-0.1-3.1-0.1
	c-2.1,0-4.2,0-6.4,0.1c-2.2,0-4.3,0-6.6,0.1c-1.1,0-2.2,0-3.3,0c-0.6,0-1.1,0-1.7,0c-0.6,0-1.1,0.1-1.7,0.1c-4.5,0.2-9.2,0.5-14,0.8
	c-1.2,0.1-2.4,0.1-3.6,0.2c-1.2,0.1-2.4,0.2-3.6,0.4c-2.4,0.2-4.9,0.5-7.4,0.7c-19.8,2.1-41.2,6-63.1,12.3
	c-21.9,6.3-44.4,15.3-66.4,26.8c-5.6,2.8-10.9,6.1-16.4,9.2c-2.8,1.5-5.4,3.3-8.1,5c-2.7,1.7-5.4,3.4-8.1,5.2
	c-10.5,7.3-21.1,14.9-31.1,23.3c-2.5,2.1-5.1,4.1-7.5,6.3c-2.4,2.2-4.9,4.4-7.4,6.6c-1.2,1.1-2.5,2.2-3.7,3.3l-3.6,3.4
	c-2.4,2.3-4.8,4.6-7.2,6.9c-9.3,9.4-18.4,19.1-26.9,29.3c-4.4,5-8.5,10.2-12.6,15.4c-2.1,2.6-4,5.3-6.1,7.9c-2,2.7-4,5.3-6,8
	c-3.8,5.4-7.8,10.7-11.4,16.2c-1.8,2.7-3.7,5.5-5.5,8.2c-1.8,2.8-3.5,5.5-5.3,8.3c-14,22.1-26.4,44.8-37.4,67.3
	c-1.4,2.8-2.7,5.6-4,8.4c-1.3,2.8-2.6,5.6-3.9,8.4c-1.3,2.8-2.5,5.6-3.8,8.4c-0.6,1.4-1.3,2.8-1.9,4.1c-0.6,1.4-1.2,2.8-1.8,4.1
	c-1.2,2.8-2.4,5.5-3.6,8.2c-1.1,2.7-2.3,5.5-3.4,8.2c-2.3,5.4-4.4,10.8-6.5,16.2c-8.4,21.4-15.4,41.9-21.4,61
	c-1.5,4.8-2.9,9.5-4.3,14.1c-1.3,4.6-2.7,9.1-3.9,13.5c-1.3,4.4-2.5,8.7-3.6,12.8c-1.2,4.2-2.2,8.2-3.3,12.2
	c-4.1,15.7-7.3,29.6-9.7,41c-2.4,11.4-4.2,20.5-5.3,26.6C43.9,596.2,43.4,599.5,43.4,599.5z"/>
<path class="st0" d="M227,164.3c0,0,0.8-0.9,2.4-2.6c1.6-1.7,4-4.1,7.1-7.1c3.1-3,7-6.6,11.5-10.6c4.5-4,9.7-8.5,15.5-13.1
	c5.8-4.7,12.2-9.6,19.1-14.6c7-4.9,14.3-10.2,22.2-15.1c7.8-5,16.1-10,24.7-14.7c8.6-4.6,17.5-9.2,26.5-13.4l6.8-3.1
	c2.3-1,4.6-1.9,6.9-2.9c2.3-0.9,4.6-2,6.9-2.8c2.3-0.9,4.6-1.8,6.9-2.6c9.2-3.5,18.4-6.3,27.4-8.9c2.2-0.7,4.5-1.2,6.7-1.8
	c2.2-0.6,4.4-1.1,6.6-1.6c2.2-0.6,4.4-0.9,6.5-1.4c2.2-0.4,4.3-0.9,6.4-1.3c1.1-0.2,2.1-0.4,3.1-0.6c1-0.2,2.1-0.3,3.1-0.5
	c2.1-0.3,4.1-0.6,6.1-0.9c4-0.7,7.8-1,11.6-1.4c1.9-0.2,3.7-0.4,5.4-0.6c1.8-0.2,3.5-0.2,5.2-0.3c3.4-0.2,6.6-0.3,9.6-0.5
	c6.1,0,11.3,0,15.7,0.1c4.3,0.2,7.7,0.5,10,0.7c2.3,0.2,3.5,0.2,3.5,0.2s-1.2,0-3.6,0.1c-2.3,0-5.7,0.1-10,0.2
	c-2.2,0-4.5,0.3-7.1,0.4c-2.6,0.2-5.4,0.3-8.4,0.5c-3,0.3-6.2,0.7-9.5,1c-1.7,0.2-3.4,0.3-5.1,0.6c-1.7,0.3-3.5,0.5-5.4,0.8
	c-3.6,0.6-7.5,1.1-11.3,1.9c-2,0.4-3.9,0.8-6,1.2c-1,0.2-2,0.4-3,0.6c-1,0.2-2,0.5-3.1,0.7c-2.1,0.5-4.1,1-6.2,1.5
	c-2.1,0.5-4.3,1-6.4,1.6c-4.3,1.2-8.7,2.3-13.1,3.7c-2.2,0.7-4.4,1.4-6.6,2.1c-2.2,0.7-4.5,1.4-6.7,2.2c-2.2,0.8-4.5,1.6-6.7,2.4
	c-1.1,0.4-2.3,0.8-3.4,1.2c-1.1,0.4-2.2,0.9-3.4,1.3c-2.3,0.9-4.5,1.8-6.8,2.6c-2.3,0.8-4.5,1.9-6.8,2.8c-2.3,1-4.5,1.9-6.8,2.9
	l-6.7,3.1c-9,4-17.7,8.5-26.3,13.1c-2.1,1.2-4.2,2.3-6.3,3.5c-2.1,1.2-4.2,2.3-6.2,3.5c-4.1,2.4-8.2,4.7-12.1,7.1
	c-7.9,4.8-15.4,9.6-22.4,14.3c-7,4.8-13.6,9.3-19.5,13.7c-6,4.4-11.4,8.5-16.1,12.2c-4.7,3.7-8.8,7-12.1,9.8c-3.3,2.8-5.9,5-7.7,6.5
	C227.9,163.4,227,164.3,227,164.3z"/>
</svg>
