<?xml version="1.0" encoding="utf-8"?>
<!-- Generator: Adobe Illustrator 20.0.0, SVG Export Plug-In . SVG Version: 6.00 Build 0)  -->
<svg version="1.1" id="Layer_1" xmlns="http://www.w3.org/2000/svg" xmlns:xlink="http://www.w3.org/1999/xlink" x="0px" y="0px"
	 viewBox="0 0 425 112.5" style="enable-background:new 0 0 425 112.5;" xml:space="preserve">
<style type="text/css">
	.st0{fill:#F800FF;}
</style>
<g>
	<path class="st0" d="M6.2,78.8L36.6,81c-1.3,4.6,0.2,8.6,10.7,9.4c7.5,0.5,12.2-1.6,13.7-5.2c1.6-3.9-1.4-5.4-11.8-7.3
		c-28.1-4.4-35.5-11.3-29.3-26.3c5.6-13.5,24.9-22.2,50-20.4c25,1.8,36,10.2,31.1,26.2l-29.7-2.1c1.2-4.5-1.3-7.4-8.1-7.8
		c-6.6-0.5-10.9,1.4-12.2,4.6c-1.4,3.5,0.9,5.3,11.6,7.1c24.6,3.8,36.8,9.5,30.1,25.7c-5.6,13.6-25,23.8-52.1,21.8
		C11.9,104.7,0.1,95.3,6.2,78.8z"/>
</g>
<g>
	<path class="st0" d="M112.8,23.2l20.2,1l-7.9,39.7L147.9,25l17.4,0.9L158.6,66l23-39.4l18.6,0.9l-40,65.1l-20.2-1l6.3-39.7
		l-24,38.9l-20-1L112.8,23.2z"/>
</g>
<g>
	<path class="st0" d="M199.5,44.7l0.2-0.6c5.5-17.4,23-28.6,40.8-28.4c18.3,0.2,28.7,10.9,23.1,28.7l-0.2,0.6
		c-5.5,17.6-21.9,29.2-41.5,28.9C202.4,73.7,194.1,61.8,199.5,44.7z M243.6,45.2l0.2-0.6c3-9.5-0.2-14.8-7.7-14.9
		c-7.3-0.1-13.7,5-16.7,14.6l-0.2,0.6c-3,9.6,0.1,15,7.5,15C234.2,60,240.6,54.5,243.6,45.2z"/>
</g>
<g>
	<path class="st0" d="M272.1,37.1l0.2-0.5c4.7-14.4,18.3-23.4,31.5-22.9c13.6,0.4,21,9.4,16.1,24.1l-0.2,0.5
		c-4.8,14.5-17.5,23.9-32,23.4C273.2,61.2,267.4,51.2,272.1,37.1z M305,38.1l0.2-0.5c2.6-7.9,0.4-12.3-5.2-12.5
		c-5.5-0.2-10.4,3.9-13,11.9l-0.2,0.5c-2.6,7.9-0.5,12.4,5.1,12.6C297.4,50.3,302.4,45.9,305,38.1z"/>
</g>
<g>
	<path class="st0" d="M325.8,31.3L326,31c3.9-9.8,14.1-15.6,23.9-14.7c10.1,0.9,15.3,7.4,11.3,17.5l-0.1,0.4
		c-3.9,9.9-13.6,15.9-24.3,15C326,48.2,322,41,325.8,31.3z M350.2,33.4l0.1-0.4c2.1-5.4,0.6-8.6-3.5-8.9c-4-0.3-7.8,2.3-9.9,7.7
		l-0.1,0.4c-2.1,5.4-0.7,8.6,3.4,9C344.2,41.6,348.1,38.7,350.2,33.4z"/>
</g>
<g>
	<path class="st0" d="M365.1,27.9l8.1,1.8c-0.6,1.7-0.5,2.8,1.5,3.2c1.7,0.4,2.9-0.2,3.5-1.2c0.6-1.1-0.1-1.9-3-3
		c-5.9-2.2-7.7-4.6-4.8-10c3.2-5.7,9.4-7.4,15.2-6.1c6.1,1.4,9,4.5,6.2,10.7l-8-1.8c0.5-1.5,0.3-2.6-1.4-2.9
		c-1.6-0.4-2.8,0.2-3.3,1.2c-0.6,1.1,0.2,1.9,2.6,2.7c6.3,2.4,8.5,4.8,5.5,10.2c-3.4,6.2-9.3,7.8-15.9,6.3
		C364.5,37.5,362.1,33.6,365.1,27.9z"/>
</g>
<g>
	<path class="st0" d="M402.1,12.3l7.2,1.3l-4.4,8.8l6.7,1.2l4.4-8.8l7.2,1.3l-11.9,23.9l-7.2-1.3l4.6-9.2l-6.7-1.2l-4.6,9.2
		l-7.2-1.3L402.1,12.3z"/>
</g>
</svg>
