<?xml version="1.0" encoding="utf-8"?>
<!-- Generator: Adobe Illustrator 20.0.0, SVG Export Plug-In . SVG Version: 6.00 Build 0)  -->
<svg version="1.1" id="Layer_1" xmlns="http://www.w3.org/2000/svg" xmlns:xlink="http://www.w3.org/1999/xlink" x="0px" y="0px"
	 viewBox="0 0 310 626.7" style="enable-background:new 0 0 310 626.7;" xml:space="preserve">
<style type="text/css">
	.st0{fill:#F800FF;}
	.st1{fill:#FFFFFF;}
</style>
<g>
	<g>
		<path class="st0" d="M185,597.7c0,0-0.9-7.5-2.5-20.6c-0.7-6.6-1.7-14.5-2.7-23.7c-1-9.1-2.1-19.5-3.4-30.7
			c-1.2-11.3-2.5-23.4-3.8-36.4c-1.3-12.9-2.8-26.5-4.1-40.6c-1.4-14.1-2.9-28.6-4.2-43.4c-1.4-14.8-2.8-29.8-4.2-44.8
			c-1.4-15-2.7-30.1-4-44.9c-1.4-14.8-2.5-29.4-3.8-43.5c-1.2-14.1-2.3-27.7-3.4-40.7c-1.1-12.9-2-25.2-2.9-36.4
			c-0.8-11.3-1.6-21.6-2.3-30.8c-0.6-9.2-1.2-17.2-1.7-23.8c-0.9-13.2-1.3-20.7-1.3-20.7s0.9,7.5,2.5,20.6
			c0.7,6.6,1.7,14.5,2.7,23.7c1,9.1,2.1,19.5,3.4,30.7c1.2,11.3,2.5,23.4,3.8,36.4c1.3,12.9,2.8,26.5,4.1,40.6
			c1.4,14.1,2.9,28.6,4.2,43.4c1.4,14.8,2.8,29.8,4.2,44.8c1.4,15,2.7,30.1,4,44.9c1.4,14.8,2.5,29.4,3.8,43.5
			c1.2,14.1,2.3,27.7,3.4,40.7c1.1,12.9,2,25.2,2.9,36.4c0.8,11.3,1.6,21.6,2.3,30.8c0.6,9.2,1.2,17.2,1.7,23.8
			C184.5,590.1,185,597.7,185,597.7z"/>
		<path class="st0" d="M179.3,365.2c0,0-0.1-1.3-0.4-3.8c-0.2-2.5-0.6-6.1-1-10.8c-0.4-4.6-0.9-10.3-1.5-16.7
			c-0.5-6.5-1.2-13.7-1.8-21.7c-0.6-7.9-1.3-16.6-1.9-25.7c-0.7-9.1-1.4-18.7-2-28.7c-0.6-9.9-1.4-20.2-2-30.7
			c-0.6-10.4-1.3-21.1-1.9-31.7c-0.6-10.6-1.1-21.2-1.7-31.7c-0.6-10.4-1-20.7-1.5-30.7c-0.5-10-0.9-19.6-1.2-28.7
			c-0.4-9.1-0.7-17.8-1-25.7c-0.3-8-0.5-15.3-0.7-21.8c-0.2-6.5-0.3-12.1-0.4-16.8c-0.1-4.7-0.2-8.3-0.2-10.8c0-2.5-0.1-3.8-0.1-3.8
			s0.1,1.3,0.4,3.8c0.2,2.5,0.6,6.1,1,10.8c0.4,4.6,0.9,10.3,1.5,16.7c0.6,6.5,1.2,13.7,1.8,21.7c0.6,7.9,1.3,16.6,1.9,25.7
			c0.7,9.1,1.4,18.7,2,28.7c0.6,9.9,1.4,20.2,2,30.7c0.6,10.4,1.3,21.1,1.9,31.7c0.6,10.6,1.1,21.2,1.7,31.7
			c0.6,10.4,1,20.7,1.5,30.7c0.5,10,0.9,19.6,1.2,28.7c0.4,9.1,0.7,17.8,1,25.7c0.3,8,0.5,15.3,0.7,21.8c0.2,6.5,0.3,12.1,0.4,16.8
			c0.1,4.7,0.2,8.3,0.2,10.8C179.2,363.9,179.3,365.2,179.3,365.2z"/>
		<g>
			<path class="st1" d="M274.2,255c46.4-63.9-56.8-108.8-90.4-33.6c-21.3-36-115.7-19.1-68.1,30.1c-40.7-4.2-146.4,47.4-71.8,94.8"
				/>
			<path class="st0" d="M274.2,255c4.1-6.1,7.5-12.6,9.3-19.6c0.9-3.5,1.5-7.1,1.5-10.6c0.1-3.6-0.4-7.1-1.3-10.6
				c-1-3.4-2.4-6.7-4.3-9.6c-1.9-3-4.2-5.7-6.8-8c-5.2-4.8-11.6-8.1-18.4-10.1c-6.8-2-13.9-2.6-20.9-1.8c-7,0.8-13.8,3-19.9,6.4
				c-6.1,3.4-11.6,8-16.1,13.4c-2.3,2.7-4.3,5.6-6.1,8.6c-1.8,3-3.4,6.2-4.9,9.4l-2.2,4.7l-2.7-4.5c-2.5-4.2-6.1-7.6-10.4-10.3
				c-4.2-2.6-9-4.5-14-5.7c-5-1.2-10.1-1.8-15.2-1.9c-5.1,0-10.3,0.5-15.2,1.7c-4.9,1.2-9.7,3.1-13.7,5.9c-2,1.4-3.7,3.1-5,5
				c-1.3,1.9-2.3,4-2.6,6.2c-0.4,2.2-0.3,4.6,0.3,6.9c0.5,2.3,1.5,4.6,2.6,6.8c2.4,4.4,5.6,8.5,9.2,12.3l4.4,4.7l-6.3-0.7
				c-3.3-0.4-6.7-0.3-10.1-0.1c-3.4,0.3-6.8,0.7-10.2,1.4c-6.8,1.3-13.5,3.2-20.1,5.5c-6.6,2.3-13,5.1-19.2,8.3
				c-6.2,3.2-12.1,6.9-17.6,11.2c-5.4,4.3-10.5,9.2-14.2,14.9c-1.8,2.9-3.4,6-4.3,9.3c-0.9,3.3-1.2,6.7-0.8,10.1
				c0.4,3.4,1.5,6.7,3,9.8c1.6,3.1,3.6,5.9,5.9,8.6c4.6,5.3,10.2,9.7,16,13.6c-3-1.8-6-3.8-8.8-5.9c-2.8-2.1-5.5-4.5-7.9-7.1
				c-2.4-2.6-4.6-5.4-6.4-8.6c-1.8-3.1-3-6.6-3.6-10.2c-0.6-3.6-0.3-7.3,0.6-10.9c0.9-3.5,2.4-6.9,4.2-10c3.8-6.2,8.8-11.5,14.3-16
				c5.5-4.6,11.5-8.5,17.8-11.9c6.3-3.4,12.8-6.4,19.4-8.9c6.7-2.5,13.6-4.5,20.6-6c3.5-0.7,7.1-1.3,10.7-1.6
				c3.6-0.3,7.3-0.4,11-0.1l-1.9,4c-1.9-1.9-3.8-4-5.5-6.2c-1.7-2.2-3.3-4.5-4.7-7c-1.4-2.5-2.5-5.2-3.2-8c-0.7-2.9-1-5.9-0.5-9
				c0.5-3,1.7-6,3.4-8.5c1.7-2.5,3.9-4.6,6.3-6.3c4.7-3.4,10.1-5.5,15.5-6.9c5.4-1.4,11-2,16.6-1.9c5.6,0,11.1,0.7,16.6,2
				c5.4,1.4,10.7,3.4,15.6,6.5c4.8,3,9.2,7.1,12.1,12.2l-4.8,0.3c1.6-3.4,3.3-6.8,5.3-10c2-3.2,4.3-6.3,6.7-9.1
				c4.9-5.8,11-10.7,17.7-14.3c6.7-3.6,14.2-5.8,21.8-6.5c7.6-0.7,15.3,0.1,22.5,2.4c7.2,2.4,14,6.2,19.4,11.5
				c2.7,2.6,5.1,5.6,7,8.9c1.9,3.3,3.3,6.8,4.2,10.5c0.9,3.7,1.2,7.5,0.9,11.2c-0.2,3.7-1,7.4-2.1,10.9c-1.1,3.5-2.6,6.9-4.4,10.1
				C278.4,249,276.4,252,274.2,255z"/>
		</g>
	</g>
	<path class="st0" d="M237.7,274.5c-0.6,0.1-1.3,0.3-1.9,0.3c-0.7,0.1-1.3,0.1-2,0.1c-0.7,0-1.3-0.1-2-0.1c-0.7-0.1-1.3-0.2-2-0.4
		c-0.7-0.2-1.3-0.5-1.9-0.7c-0.6-0.3-1.2-0.6-1.8-1c-0.6-0.4-1.1-0.8-1.6-1.2c-0.5-0.4-1-0.9-1.5-1.4c-0.5-0.5-0.9-1-1.3-1.6
		c-0.4-0.6-0.8-1.1-1.1-1.7c-0.4-0.6-0.7-1.2-1-1.8c-0.3-0.6-0.6-1.2-0.8-1.8c-0.5-1.3-1-2.5-1.3-3.8c-0.2-0.6-0.4-1.3-0.5-2
		c-0.1-0.7-0.3-1.3-0.4-2.1l2.6,0.8l-3.7,5.3c-1.3,1.8-2.6,3.6-3.9,5.3c-2.7,3.5-5.4,6.9-8.4,10.2c-1.5,1.6-3,3.3-4.5,4.8
		c-1.6,1.6-3.1,3.2-4.8,4.7c-3.3,3-6.7,5.9-10.3,8.5c-1.8,1.3-3.7,2.6-5.6,3.7c-1.9,1.2-3.9,2.3-6,3.3c-2,1-4.1,1.9-6.3,2.7
		c-2.1,0.8-4.4,1.4-6.6,1.9c-4.5,0.9-9.2,1.2-13.8,0.5c-4.6-0.7-9-2.3-13-4.6l2.7-1.7c0,1.4,0,2.8,0,4.1c0,1.4-0.1,2.7-0.2,4.1
		c-0.2,2.7-0.5,5.5-0.9,8.2c-0.4,2.7-1,5.4-1.8,8.1c-0.8,2.6-1.8,5.3-3.1,7.7c-1.3,2.4-3,4.8-5.2,6.6c-2.2,1.8-4.9,2.9-7.7,3.2
		c-1.4,0.1-2.8,0.1-4.2-0.1c-1.4-0.2-2.7-0.5-4-0.9c-1.3-0.4-2.6-0.9-3.8-1.5c-1.2-0.6-2.4-1.2-3.6-1.9c1.2,0.6,2.5,1.1,3.7,1.6
		c1.3,0.5,2.5,0.9,3.8,1.2c2.6,0.6,5.3,0.9,7.8,0.5c2.6-0.4,4.9-1.6,6.8-3.3c1.9-1.7,3.3-3.9,4.4-6.2c1.1-2.3,1.9-4.8,2.5-7.4
		c0.6-2.6,1-5.2,1.3-7.8c0.3-2.6,0.5-5.3,0.5-7.9c0-1.3,0-2.6,0-4c0-1.3-0.1-2.7-0.2-3.9l-0.2-3l2.9,1.3c1.9,0.9,3.8,1.6,5.8,2.2
		c2,0.6,4,0.9,6,1.1c4.1,0.3,8.2,0,12.1-1c2-0.5,3.9-1.2,5.9-1.9c1.9-0.7,3.8-1.6,5.7-2.5c1.9-0.9,3.7-2,5.5-3.1
		c1.8-1.1,3.5-2.3,5.3-3.5c3.5-2.4,6.8-5.1,10-8c1.6-1.4,3.2-2.8,4.8-4.3c1.6-1.5,3.1-3,4.6-4.5c3-3.1,6-6.2,8.8-9.4l4.2-4.9
		l4.2-5.1l2.4-2.8l0.3,3.7c0,0.6,0.1,1.2,0.2,1.8c0.1,0.6,0.2,1.2,0.3,1.9c0.2,1.2,0.6,2.4,0.9,3.6c0.2,0.6,0.4,1.2,0.6,1.8
		c0.2,0.6,0.5,1.2,0.8,1.7c0.3,0.6,0.6,1.1,0.9,1.6c0.3,0.5,0.7,1,1,1.6c0.4,0.5,0.8,1,1.2,1.4c0.4,0.5,0.9,0.9,1.4,1.3
		c0.5,0.4,1,0.8,1.5,1.1c0.5,0.3,1.1,0.6,1.7,0.8c0.6,0.3,1.2,0.4,1.8,0.6c0.6,0.1,1.2,0.3,1.9,0.4c0.6,0.1,1.3,0.1,1.9,0.1
		C236.4,274.6,237,274.5,237.7,274.5z"/>
</g>
</svg>
