<?xml version="1.0" encoding="utf-8"?>
<!-- Generator: Adobe Illustrator 20.0.0, SVG Export Plug-In . SVG Version: 6.00 Build 0)  -->
<svg version="1.1" id="Layer_1" xmlns="http://www.w3.org/2000/svg" xmlns:xlink="http://www.w3.org/1999/xlink" x="0px" y="0px"
	 viewBox="0 0 116.7 75.3" style="enable-background:new 0 0 116.7 75.3;" xml:space="preserve">
<style type="text/css">
	.st0{fill:#F800FF;}
</style>
<g>
	<path class="st0" d="M19.4,40.2l-6.2-1.6l0.1-9.1l22,5.8l-0.1,9.1L29,42.7l-0.2,22.8L19.2,63L19.4,40.2z"/>
</g>
<g>
	<path class="st0" d="M40,42.5l-8.1-20.6l10.3,2.7l3,9.5l3.3-7.8l9.1,2.4l-8,16.3l-0.1,13.6L39.8,56L40,42.5z"/>
</g>
<g>
	<path class="st0" d="M58.2,15.3l11,2.9c8.1,2.1,10.9,7.4,10.9,14.3l0,0.2c-0.1,6.6-3.5,9.8-10.6,7.9l-2-0.5l-0.1,9.6l-9.5-2.5
		L58.2,15.3z M68.5,32.5c1.7,0.5,2.6-0.3,2.6-2.1l0-0.2c0-1.8-0.8-2.9-2.5-3.3l-1-0.3l-0.1,5.6L68.5,32.5z"/>
</g>
<g>
	<path class="st0" d="M82.4,9.8l19.1,5l-0.1,9.1l-9.6-2.5l0,2.7l7.6,2l-0.1,8.2l-7.6-2l0,2.9l10.2,2.7l-0.1,9.1l-19.7-5.2L82.4,9.8z
		"/>
</g>
</svg>
