<?xml version="1.0" encoding="utf-8"?>
<!-- Generator: Adobe Illustrator 20.0.0, SVG Export Plug-In . SVG Version: 6.00 Build 0)  -->
<svg version="1.1" id="Layer_1" xmlns="http://www.w3.org/2000/svg" xmlns:xlink="http://www.w3.org/1999/xlink" x="0px" y="0px"
	 viewBox="0 0 171.1 112.5" style="enable-background:new 0 0 171.1 112.5;" xml:space="preserve">
<style type="text/css">
	.st0{fill:#F800FF;}
</style>
<g>
	<path class="st0" d="M21.8,36l11.6,3.1l2.7,22.1l3.1-20.6l9.8,2.6l3.4,22.6l3.3-20.8l10.7,2.8l-7.6,36.9l-11.1-2.9l-3.4-21.5
		l-3.8,19.6l-11.9-3.1L21.8,36z"/>
</g>
<g>
	<path class="st0" d="M69.8,49.5l0-0.4c0.1-12.3,7.8-17.8,17.2-15.3c9.7,2.6,17.1,11.3,17,24l0,0.4c-0.1,12.4-7,18.5-17.6,15.7
		C75.9,71.1,69.7,61.6,69.8,49.5z M91.9,55.3l0-0.4c0.1-6-2-9.1-5-9.9c-2.9-0.8-5,1.3-5,7.2l0,0.4c-0.1,5.9,1.7,9.2,4.9,10
		C89.9,63.5,91.9,60.9,91.9,55.3z"/>
</g>
<g>
	<path class="st0" d="M104.6,21.2l11.6,3.1l2.7,22.1l3.1-20.6l9.8,2.6l3.4,22.6l3.3-20.8l10.7,2.8l-7.6,36.9L130.6,67l-3.4-21.5
		l-3.8,19.6L111.5,62L104.6,21.2z"/>
</g>
</svg>
